<?xml version="1.0" encoding="UTF-8" standalone="no"?>
<svg
   width="150"
   height="150"
   viewBox="0 0 150 150"
   version="1.1"
   id="svg59"
   xmlns="http://www.w3.org/2000/svg"
   xmlns:svg="http://www.w3.org/2000/svg">
  <defs
     id="defs63" />
  <rect
     width="150"
     height="150"
     transform="translate(0 0.5)"
     fill="#333333"
     id="rect53" />
  <path
     d="M82.8876 50.5H55.5555V100.5H94.4444V61.9818H82.8876V50.5Z"
     fill="white"
     id="path55" />
  <path
     d="M82.8876 61.9818H94.4444L82.8876 50.5V61.9818Z"
     fill="#9A9A9A"
     id="path57" />
  <path
     d="m 83.160233,82.017271 v -0.0031 0 0 -13.435645 c 0,-0.296842 -0.129422,-0.57898 -0.35449,-0.772605 -0.225074,-0.193478 -0.523078,-0.279517 -0.816863,-0.235115 l -12.652122,1.911205 c -0.49833,0.07541 -0.866799,0.503714 -0.866799,1.00772 V 81.47685 c -0.301496,-0.08196 -0.621637,-0.127091 -0.952687,-0.127091 -0.833459,0 -1.658914,0.263355 -2.324078,0.74145 -0.754262,0.541858 -1.225655,1.3149 -1.293497,2.120841 -0.06886,0.811329 0.281995,1.60781 0.93842,2.131035 0.539388,0.429321 1.265551,0.665892 2.044854,0.665892 0.361479,0 0.725435,-0.05063 1.082255,-0.150384 1.197562,-0.336004 2.542891,-1.392789 2.542891,-2.929993 V 71.366349 l 10.613964,-1.603444 v 9.802493 c -0.301643,-0.08196 -0.621924,-0.127091 -0.952834,-0.127091 -0.833459,0 -1.658914,0.263355 -2.323931,0.741304 -0.754262,0.541858 -1.225802,1.3149 -1.29379,2.121281 -0.06842,0.811329 0.282282,1.60781 0.938567,2.130741 0.539387,0.429321 1.26555,0.665892 2.044994,0.665892 0.362213,0 0.726316,-0.05069 1.081967,-0.150384 1.197562,-0.336003 2.543179,-1.386379 2.543179,-2.929845 z m -15.745304,2.878454 c -0.495707,0.139034 -1.03131,0.07235 -1.307189,-0.147186 -0.122285,-0.09739 -0.188671,-0.233654 -0.177462,-0.365117 0.01718,-0.205274 0.19042,-0.449556 0.451886,-0.637359 0.316936,-0.227692 0.730535,-0.358422 1.134814,-0.358422 0.315482,0 0.598051,0.08109 0.775666,0.222445 0.110494,0.08794 0.176734,0.208038 0.177027,0.320863 0.0012,0.413018 -0.546664,0.822544 -1.054742,0.964776 z m 11.344933,-2.058387 c -0.122144,-0.0974 -0.188383,-0.23366 -0.177315,-0.365124 0.01718,-0.205267 0.19042,-0.449555 0.452033,-0.637358 0.31693,-0.227692 0.730529,-0.358422 1.134667,-0.358422 0.315475,0 0.598198,0.08109 0.775659,0.222158 0.110648,0.08808 0.176741,0.208472 0.177175,0.321302 0.0012,0.412725 -0.546952,0.822104 -1.05547,0.964771 -0.49309,0.138159 -1.030429,0.0725 -1.306749,-0.147327 z"
     id="path232"
     style="stroke-width:0.145582" />
</svg>
