<svg width="64" height="64" viewBox="0 0 64 64" fill="none" xmlns="http://www.w3.org/2000/svg">
<rect width="64" height="64" rx="10" fill="#F4FBFF"/>
<rect x="0.25" y="0.25" width="63.5" height="63.5" rx="9.75" stroke="#5B48D9" stroke-opacity="0.25" stroke-width="0.5"/>
<mask id="path-3-inside-1_516_882" fill="white">
<path fill-rule="evenodd" clip-rule="evenodd" d="M15.4471 19.0019V43.3129C15.4471 44.7148 16.852 45.6816 18.1614 45.181L37.1228 37.931L38.5573 37.9105V45.2625C38.5573 46.7589 39.7703 47.972 41.2667 47.972C42.7631 47.972 43.9762 46.7589 43.9762 45.2625V37.4073C46.4976 36.4237 48.2794 33.9715 48.2794 31.1081C48.2794 27.3537 45.2199 24.3186 41.4657 24.3488L37.1228 24.3837L18.1614 17.1338C16.852 16.6331 15.4471 17.6 15.4471 19.0019Z"/>
</mask>
<path fill-rule="evenodd" clip-rule="evenodd" d="M15.4471 19.0019V43.3129C15.4471 44.7148 16.852 45.6816 18.1614 45.181L37.1228 37.931L38.5573 37.9105V45.2625C38.5573 46.7589 39.7703 47.972 41.2667 47.972C42.7631 47.972 43.9762 46.7589 43.9762 45.2625V37.4073C46.4976 36.4237 48.2794 33.9715 48.2794 31.1081C48.2794 27.3537 45.2199 24.3186 41.4657 24.3488L37.1228 24.3837L18.1614 17.1338C16.852 16.6331 15.4471 17.6 15.4471 19.0019Z" fill="#5B48D9"/>
<path d="M18.1614 45.181L17.8043 44.2469L17.8043 44.2469L18.1614 45.181ZM37.1228 37.931L37.1086 36.9311L36.9313 36.9337L36.7657 36.997L37.1228 37.931ZM38.5573 37.9105H39.5573V36.8961L38.543 36.9106L38.5573 37.9105ZM43.9762 37.4073L43.6128 36.4757L42.9762 36.724V37.4073H43.9762ZM41.4657 24.3488L41.4737 25.3488L41.4737 25.3488L41.4657 24.3488ZM37.1228 24.3837L36.7657 25.3178L36.9421 25.3852L37.1309 25.3837L37.1228 24.3837ZM18.1614 17.1338L17.8043 18.0678L17.8043 18.0678L18.1614 17.1338ZM16.4471 43.3129V19.0019H14.4471V43.3129H16.4471ZM17.8043 44.2469C17.1496 44.4973 16.4471 44.0138 16.4471 43.3129H14.4471C14.4471 45.4157 16.5544 46.866 18.5186 46.115L17.8043 44.2469ZM36.7657 36.997L17.8043 44.2469L18.5186 46.115L37.48 38.8651L36.7657 36.997ZM38.543 36.9106L37.1086 36.9311L37.1371 38.9309L38.5715 38.9104L38.543 36.9106ZM39.5573 45.2625V37.9105H37.5573V45.2625H39.5573ZM41.2667 46.972C40.3226 46.972 39.5573 46.2066 39.5573 45.2625H37.5573C37.5573 47.3112 39.218 48.972 41.2667 48.972V46.972ZM42.9762 45.2625C42.9762 46.2066 42.2108 46.972 41.2667 46.972V48.972C43.3154 48.972 44.9762 47.3112 44.9762 45.2625H42.9762ZM42.9762 37.4073V45.2625H44.9762V37.4073H42.9762ZM47.2794 31.1081C47.2794 33.5464 45.7627 35.637 43.6128 36.4757L44.3396 38.3389C47.2325 37.2104 49.2794 34.3966 49.2794 31.1081H47.2794ZM41.4737 25.3488C44.6726 25.3231 47.2794 27.9091 47.2794 31.1081H49.2794C49.2794 26.7983 45.7673 23.3142 41.4576 23.3488L41.4737 25.3488ZM37.1309 25.3837L41.4737 25.3488L41.4576 23.3488L37.1148 23.3837L37.1309 25.3837ZM17.8043 18.0678L36.7657 25.3178L37.48 23.4497L18.5186 16.1997L17.8043 18.0678ZM16.4471 19.0019C16.4471 18.3009 17.1496 17.8175 17.8043 18.0678L18.5186 16.1997C16.5544 15.4487 14.4471 16.899 14.4471 19.0019H16.4471Z" fill="#5B48D9" mask="url(#path-3-inside-1_516_882)"/>
<mask id="path-5-inside-2_516_882" fill="white">
<path fill-rule="evenodd" clip-rule="evenodd" d="M15.9253 27.0932V34.7434C15.9253 34.7434 15.9253 34.7434 15.9253 34.7434C13.8127 34.7434 12.1002 33.0309 12.1002 30.9183C12.1002 28.8058 13.8127 27.0932 15.9253 27.0932C15.9253 27.0932 15.9253 27.0932 15.9253 27.0932Z"/>
</mask>
<path fill-rule="evenodd" clip-rule="evenodd" d="M15.9253 27.0932V34.7434C15.9253 34.7434 15.9253 34.7434 15.9253 34.7434C13.8127 34.7434 12.1002 33.0309 12.1002 30.9183C12.1002 28.8058 13.8127 27.0932 15.9253 27.0932C15.9253 27.0932 15.9253 27.0932 15.9253 27.0932Z" fill="#08C3B2"/>
<path d="M15.9253 27.0932H16.9253V26.0932H15.9253V27.0932ZM15.9253 34.7434V35.7434H16.9253V34.7434H15.9253ZM14.9253 27.0932V34.7434H16.9253V27.0932H14.9253ZM15.9253 33.7434C15.9253 33.7434 15.9253 33.7434 15.9253 33.7434C15.9253 33.7434 15.9253 33.7434 15.9253 33.7434C15.9253 33.7434 15.9253 33.7434 15.9253 33.7434C15.9253 33.7434 15.9253 33.7434 15.9253 33.7434C15.9253 33.7434 15.9253 33.7434 15.9253 33.7434C15.9253 33.7434 15.9253 33.7434 15.9253 33.7434C15.9253 33.7434 15.9253 33.7434 15.9253 33.7434C15.9253 33.7434 15.9253 33.7434 15.9253 33.7434C15.9253 33.7434 15.9253 33.7434 15.9253 33.7434C15.9253 33.7434 15.9253 33.7434 15.9253 33.7434C15.9253 33.7434 15.9253 33.7434 15.9253 33.7434C15.9253 33.7434 15.9253 33.7434 15.9253 33.7434C15.9253 33.7434 15.9253 33.7434 15.9253 33.7434C15.9253 33.7434 15.9253 33.7434 15.9253 33.7434C15.9253 33.7434 15.9253 33.7434 15.9253 33.7434C15.9253 33.7434 15.9253 33.7434 15.9253 33.7434C15.9253 33.7434 15.9253 33.7434 15.9253 33.7434C15.9253 33.7434 15.9253 33.7434 15.9253 33.7434C15.9253 33.7434 15.9253 33.7434 15.9253 33.7434C15.9253 33.7434 15.9253 33.7434 15.9253 33.7434C15.9253 33.7434 15.9253 33.7434 15.9253 33.7434C15.9253 33.7434 15.9253 33.7434 15.9253 33.7434C15.9253 33.7434 15.9253 33.7434 15.9253 33.7434C15.9253 33.7434 15.9253 33.7434 15.9253 33.7434C15.9253 33.7434 15.9253 33.7434 15.9253 33.7434C15.9253 33.7434 15.9253 33.7434 15.9253 33.7434C15.9253 33.7434 15.9253 33.7434 15.9253 33.7434C15.9253 33.7434 15.9253 33.7434 15.9253 33.7434C15.9253 33.7434 15.9253 33.7434 15.9253 33.7434C15.9253 33.7434 15.9253 33.7434 15.9253 33.7434C15.9253 33.7434 15.9253 33.7434 15.9253 33.7434C15.9253 33.7434 15.9253 33.7434 15.9253 33.7434C15.9253 33.7434 15.9253 33.7434 15.9253 33.7434C15.9253 33.7434 15.9253 33.7434 15.9253 33.7434C15.9253 33.7434 15.9253 33.7434 15.9253 33.7434C15.9253 33.7434 15.9253 33.7434 15.9253 33.7434C15.9253 33.7434 15.9253 33.7434 15.9253 33.7434C15.9253 33.7434 15.9253 33.7434 15.9253 33.7434C15.9253 33.7434 15.9253 33.7434 15.9253 33.7434C15.9253 33.7434 15.9253 33.7434 15.9253 33.7434C15.9253 33.7434 15.9253 33.7434 15.9253 33.7434C15.9253 33.7434 15.9253 33.7434 15.9253 33.7434C15.9253 33.7434 15.9253 33.7434 15.9253 33.7434C15.9253 33.7434 15.9253 33.7434 15.9253 33.7434C15.9253 33.7434 15.9253 33.7434 15.9253 33.7434C15.9253 33.7434 15.9253 33.7434 15.9253 33.7434C15.9253 33.7434 15.9253 33.7434 15.9253 33.7434C15.9253 33.7434 15.9253 33.7434 15.9253 33.7434C15.9253 33.7434 15.9253 33.7434 15.9253 33.7434C15.9253 33.7434 15.9253 33.7434 15.9253 33.7434C15.9253 33.7434 15.9253 33.7434 15.9253 33.7434C15.9253 33.7434 15.9253 33.7434 15.9253 33.7434C15.9253 33.7434 15.9253 33.7434 15.9253 33.7434C15.9253 33.7434 15.9253 33.7434 15.9253 33.7434C15.9253 33.7434 15.9253 33.7434 15.9253 33.7434C15.9253 33.7434 15.9253 33.7434 15.9253 33.7434C15.9253 33.7434 15.9253 33.7434 15.9253 33.7434C15.9253 33.7434 15.9253 33.7434 15.9253 33.7434C15.9253 33.7434 15.9253 33.7434 15.9253 33.7434C15.9253 33.7434 15.9253 33.7434 15.9253 33.7434C15.9253 33.7434 15.9253 33.7434 15.9253 33.7434C15.9253 33.7434 15.9253 33.7434 15.9253 33.7434C15.9253 33.7434 15.9253 33.7434 15.9253 33.7434C15.9253 33.7434 15.9253 33.7434 15.9253 33.7434C15.9253 33.7434 15.9253 33.7434 15.9253 33.7434C15.9253 33.7434 15.9253 33.7434 15.9253 33.7434C15.9253 33.7434 15.9253 33.7434 15.9253 33.7434C15.9253 33.7434 15.9253 33.7434 15.9253 33.7434C15.9253 33.7434 15.9253 33.7434 15.9253 33.7434C15.9253 33.7434 15.9253 33.7434 15.9253 33.7434C15.9253 33.7434 15.9253 33.7434 15.9253 33.7434C15.9253 33.7434 15.9253 33.7434 15.9253 33.7434C15.9253 33.7434 15.9253 33.7434 15.9253 33.7434C15.9253 33.7434 15.9253 33.7434 15.9253 33.7434C15.9253 33.7434 15.9253 33.7434 15.9253 33.7434C15.9253 33.7434 15.9253 33.7434 15.9253 33.7434C15.9253 33.7434 15.9253 33.7434 15.9253 33.7434C15.9253 33.7434 15.9253 33.7434 15.9253 33.7434C15.9253 33.7434 15.9253 33.7434 15.9253 33.7434C15.9253 33.7434 15.9253 33.7434 15.9253 33.7434C15.9253 33.7434 15.9253 33.7434 15.9253 33.7434C15.9253 33.7434 15.9253 33.7434 15.9253 33.7434C15.9253 33.7434 15.9253 33.7434 15.9253 33.7434C15.9253 33.7434 15.9253 33.7434 15.9253 33.7434C15.9253 33.7434 15.9253 33.7434 15.9253 33.7434C15.9253 33.7434 15.9253 33.7434 15.9253 33.7434C15.9253 33.7434 15.9253 33.7434 15.9253 33.7434C15.9253 33.7434 15.9253 33.7434 15.9253 33.7434C15.9253 33.7434 15.9253 33.7434 15.9253 33.7434C15.9253 33.7434 15.9253 33.7434 15.9253 33.7434C15.9253 33.7434 15.9253 33.7434 15.9253 33.7434C15.9253 33.7434 15.9253 33.7434 15.9253 33.7434C15.9253 33.7434 15.9253 33.7434 15.9253 33.7434C15.9253 33.7434 15.9253 33.7434 15.9253 33.7434C15.9253 33.7434 15.9253 33.7434 15.9253 33.7434C15.9253 33.7434 15.9253 33.7434 15.9253 33.7434C15.9253 33.7434 15.9253 33.7434 15.9253 33.7434C15.9253 33.7434 15.9253 33.7434 15.9253 33.7434C15.9253 33.7434 15.9253 33.7434 15.9253 33.7434C15.9253 33.7434 15.9253 33.7434 15.9253 33.7434C15.9253 33.7434 15.9253 33.7434 15.9253 33.7434C15.9253 33.7434 15.9253 33.7434 15.9253 33.7434C15.9253 33.7434 15.9253 33.7434 15.9253 33.7434C15.9253 33.7434 15.9253 33.7434 15.9253 33.7434C15.9253 33.7434 15.9253 33.7434 15.9253 33.7434C15.9253 33.7434 15.9253 33.7434 15.9253 33.7434C15.9253 33.7434 15.9253 33.7434 15.9253 33.7434C15.9253 33.7434 15.9253 33.7434 15.9253 33.7434C15.9253 33.7434 15.9253 33.7434 15.9253 33.7434C15.9253 33.7434 15.9253 33.7434 15.9253 33.7434C15.9253 33.7434 15.9253 33.7434 15.9253 33.7434C15.9253 33.7434 15.9253 33.7434 15.9253 33.7434C15.9253 33.7434 15.9253 33.7434 15.9253 33.7434C15.9253 33.7434 15.9253 33.7434 15.9253 33.7434C15.9253 33.7434 15.9253 33.7434 15.9253 33.7434C15.9253 33.7434 15.9253 33.7434 15.9253 33.7434C15.9253 33.7434 15.9253 33.7434 15.9253 33.7434C15.9253 33.7434 15.9253 33.7434 15.9253 33.7434C15.9253 33.7434 15.9253 33.7434 15.9253 33.7434C15.9253 33.7434 15.9253 33.7434 15.9253 33.7434C15.9253 33.7434 15.9253 33.7434 15.9253 33.7434C15.9253 33.7434 15.9253 33.7434 15.9253 33.7434C15.9253 33.7434 15.9253 33.7434 15.9253 33.7434C15.9253 33.7434 15.9253 33.7434 15.9253 33.7434C15.9253 33.7434 15.9253 33.7434 15.9253 33.7434C15.9253 33.7434 15.9253 33.7434 15.9253 33.7434C15.9253 33.7434 15.9253 33.7434 15.9253 33.7434C15.9253 33.7434 15.9253 33.7434 15.9253 33.7434C15.9253 33.7434 15.9253 33.7434 15.9253 33.7434C15.9253 33.7434 15.9253 33.7434 15.9253 33.7434C15.9253 33.7434 15.9253 33.7434 15.9253 33.7434C15.9253 33.7434 15.9253 33.7434 15.9253 33.7434C15.9253 33.7434 15.9253 33.7434 15.9253 33.7434C15.9253 33.7434 15.9253 33.7434 15.9253 33.7434C15.9253 33.7434 15.9253 33.7434 15.9253 33.7434C15.9253 33.7434 15.9253 33.7434 15.9253 33.7434C15.9253 33.7434 15.9253 33.7434 15.9253 33.7434C15.9253 33.7434 15.9253 33.7434 15.9253 33.7434C15.9253 33.7434 15.9253 33.7434 15.9253 33.7434C15.9253 33.7434 15.9253 33.7434 15.9253 33.7434C15.9253 33.7434 15.9253 33.7434 15.9253 33.7434C15.9253 33.7434 15.9253 33.7434 15.9253 33.7434C15.9253 33.7434 15.9253 33.7434 15.9253 33.7434C15.9253 33.7434 15.9253 33.7434 15.9253 33.7434C15.9253 33.7434 15.9253 33.7434 15.9253 33.7434C15.9253 33.7434 15.9253 33.7434 15.9253 33.7434C15.9253 33.7434 15.9253 33.7434 15.9253 33.7434C15.9253 33.7434 15.9253 33.7434 15.9253 33.7434C15.9253 33.7434 15.9253 33.7434 15.9253 33.7434C15.9253 33.7434 15.9253 33.7434 15.9253 33.7434C15.9253 33.7434 15.9253 33.7434 15.9253 33.7434C15.9253 33.7434 15.9253 33.7434 15.9253 33.7434C15.9253 33.7434 15.9253 33.7434 15.9253 33.7434C15.9253 33.7434 15.9253 33.7434 15.9253 33.7434C15.9253 33.7434 15.9253 33.7434 15.9253 33.7434C15.9253 33.7434 15.9253 33.7434 15.9253 33.7434C15.9253 33.7434 15.9253 33.7434 15.9253 33.7434C15.9253 33.7434 15.9253 33.7434 15.9253 33.7434C15.9253 33.7434 15.9253 33.7434 15.9253 33.7434C15.9253 33.7434 15.9253 33.7434 15.9253 33.7434C15.9253 33.7434 15.9253 33.7434 15.9253 33.7434C15.9253 33.7434 15.9253 33.7434 15.9253 33.7434C15.9253 33.7434 15.9253 33.7434 15.9253 33.7434C15.9253 33.7434 15.9253 33.7434 15.9253 33.7434C15.9253 33.7434 15.9253 33.7434 15.9253 33.7434C15.9253 33.7434 15.9253 33.7434 15.9253 33.7434C15.9253 33.7434 15.9253 33.7434 15.9253 33.7434C15.9253 33.7434 15.9253 33.7434 15.9253 33.7434C15.9253 33.7434 15.9253 33.7434 15.9253 33.7434C15.9253 33.7434 15.9253 33.7434 15.9253 33.7434C15.9253 33.7434 15.9253 33.7434 15.9253 33.7434C15.9253 33.7434 15.9253 33.7434 15.9253 33.7434C15.9253 33.7434 15.9253 33.7434 15.9253 33.7434C15.9253 33.7434 15.9253 33.7434 15.9253 33.7434C15.9253 33.7434 15.9253 33.7434 15.9253 33.7434C15.9253 33.7434 15.9253 33.7434 15.9253 33.7434C15.9253 33.7434 15.9253 33.7434 15.9253 33.7434C15.9253 33.7434 15.9253 33.7434 15.9253 33.7434C15.9253 33.7434 15.9253 33.7434 15.9253 33.7434C15.9253 33.7434 15.9253 33.7434 15.9253 33.7434C15.9253 33.7434 15.9253 33.7434 15.9253 33.7434C15.9253 33.7434 15.9253 33.7434 15.9253 33.7434C15.9253 33.7434 15.9253 33.7434 15.9253 33.7434C15.9253 33.7434 15.9253 33.7434 15.9253 33.7434C15.9253 33.7434 15.9253 33.7434 15.9253 33.7434C15.9253 33.7434 15.9253 33.7434 15.9253 33.7434C15.9253 33.7434 15.9253 33.7434 15.9253 33.7434C15.9253 33.7434 15.9253 33.7434 15.9253 33.7434C15.9253 33.7434 15.9253 33.7434 15.9253 33.7434C15.9253 33.7434 15.9253 33.7434 15.9253 33.7434C15.9253 33.7434 15.9253 33.7434 15.9253 33.7434C15.9253 33.7434 15.9253 33.7434 15.9253 33.7434C15.9253 33.7434 15.9253 33.7434 15.9253 33.7434C15.9253 33.7434 15.9253 33.7434 15.9253 33.7434C15.9253 33.7434 15.9253 33.7434 15.9253 33.7434C15.9253 33.7434 15.9253 33.7434 15.9253 33.7434C15.9253 33.7434 15.9253 33.7434 15.9253 33.7434C15.9253 33.7434 15.9253 33.7434 15.9253 33.7434C15.9253 33.7434 15.9253 33.7434 15.9253 33.7434C15.9253 33.7434 15.9253 33.7434 15.9253 33.7434C15.9253 33.7434 15.9253 33.7434 15.9253 33.7434C15.9253 33.7434 15.9253 33.7434 15.9253 33.7434C15.9253 33.7434 15.9253 33.7434 15.9253 33.7434C15.9253 33.7434 15.9253 33.7434 15.9253 33.7434C15.9253 33.7434 15.9253 33.7434 15.9253 33.7434C15.9253 33.7434 15.9253 33.7434 15.9253 33.7434C15.9253 33.7434 15.9253 33.7434 15.9253 33.7434C15.9253 33.7434 15.9253 33.7434 15.9253 33.7434C15.9253 33.7434 15.9253 33.7434 15.9253 33.7434C15.9253 33.7434 15.9253 33.7434 15.9253 33.7434C15.9253 33.7434 15.9253 33.7434 15.9253 33.7434C15.9253 33.7434 15.9253 33.7434 15.9253 33.7434C15.9253 33.7434 15.9253 33.7434 15.9253 33.7434C15.9253 33.7434 15.9253 33.7434 15.9253 33.7434C15.9253 33.7434 15.9253 33.7434 15.9253 33.7434C15.9253 33.7434 15.9253 33.7434 15.9253 33.7434C15.9253 33.7434 15.9253 33.7434 15.9253 33.7434C15.9253 33.7434 15.9253 33.7434 15.9253 33.7434C15.9253 33.7434 15.9253 33.7434 15.9253 33.7434C15.9253 33.7434 15.9253 33.7434 15.9253 33.7434C15.9253 33.7434 15.9253 33.7434 15.9253 33.7434C15.9253 33.7434 15.9253 33.7434 15.9253 33.7434C15.9253 33.7434 15.9253 33.7434 15.9253 33.7434C15.9253 33.7434 15.9253 33.7434 15.9253 33.7434C15.9253 33.7434 15.9253 33.7434 15.9253 33.7434C15.9253 33.7434 15.9253 33.7434 15.9253 33.7434C15.9253 33.7434 15.9253 33.7434 15.9253 33.7434C15.9253 33.7434 15.9253 33.7434 15.9253 33.7434C15.9253 33.7434 15.9253 33.7434 15.9253 33.7434C15.9253 33.7434 15.9253 33.7434 15.9253 33.7434C15.9253 33.7434 15.9253 33.7434 15.9253 33.7434C15.9253 33.7434 15.9253 33.7434 15.9253 33.7434C15.9253 33.7434 15.9253 33.7434 15.9253 33.7434C15.9253 33.7434 15.9253 33.7434 15.9253 33.7434C15.9253 33.7434 15.9253 33.7434 15.9253 33.7434C15.9253 33.7434 15.9253 33.7434 15.9253 33.7434C15.9253 33.7434 15.9253 33.7434 15.9253 33.7434C15.9253 33.7434 15.9253 33.7434 15.9253 33.7434C15.9253 33.7434 15.9253 33.7434 15.9253 33.7434C15.9253 33.7434 15.9253 33.7434 15.9253 33.7434C15.9253 33.7434 15.9253 33.7434 15.9253 33.7434C15.9253 33.7434 15.9253 33.7434 15.9253 33.7434C15.9253 33.7434 15.9253 33.7434 15.9253 33.7434C15.9253 33.7434 15.9253 33.7434 15.9253 33.7434C15.9253 33.7434 15.9253 33.7434 15.9253 33.7434C15.9253 33.7434 15.9253 33.7434 15.9253 33.7434C15.9253 33.7434 15.9253 33.7434 15.9253 33.7434C15.9253 33.7434 15.9253 33.7434 15.9253 33.7434C15.9253 33.7434 15.9253 33.7434 15.9253 33.7434C15.9253 33.7434 15.9253 33.7434 15.9253 33.7434C15.9253 33.7434 15.9253 33.7434 15.9253 33.7434C15.9253 33.7434 15.9253 33.7434 15.9253 33.7434C15.9253 33.7434 15.9253 33.7434 15.9253 33.7434C15.9253 33.7434 15.9253 33.7434 15.9253 33.7434C15.9253 33.7434 15.9253 33.7434 15.9253 33.7434C15.9253 33.7434 15.9253 33.7434 15.9253 33.7434C15.9253 33.7434 15.9253 33.7434 15.9253 33.7434C15.9253 33.7434 15.9253 33.7434 15.9253 33.7434C15.9253 33.7434 15.9253 33.7434 15.9253 33.7434C15.9253 33.7434 15.9253 33.7434 15.9253 33.7434C15.9253 33.7434 15.9253 33.7434 15.9253 33.7434C15.9253 33.7434 15.9253 33.7434 15.9253 33.7434C15.9253 33.7434 15.9253 33.7434 15.9253 33.7434C15.9253 33.7434 15.9253 33.7434 15.9253 33.7434C15.9253 33.7434 15.9253 33.7434 15.9253 33.7434C15.9253 33.7434 15.9253 33.7434 15.9253 33.7434C15.9253 33.7434 15.9253 33.7434 15.9253 33.7434C15.9253 33.7434 15.9253 33.7434 15.9253 33.7434C15.9253 33.7434 15.9253 33.7434 15.9253 33.7434C15.9253 33.7434 15.9253 33.7434 15.9253 33.7434C15.9253 33.7434 15.9253 33.7434 15.9253 33.7434C15.9253 33.7434 15.9253 33.7434 15.9253 33.7434C15.9253 33.7434 15.9253 33.7434 15.9253 33.7434C15.9253 33.7434 15.9253 33.7434 15.9253 33.7434C15.9253 33.7434 15.9253 33.7434 15.9253 33.7434C15.9253 33.7434 15.9253 33.7434 15.9253 33.7434C15.9253 33.7434 15.9253 33.7434 15.9253 33.7434C15.9253 33.7434 15.9253 33.7434 15.9253 33.7434C15.9253 33.7434 15.9253 33.7434 15.9253 33.7434C15.9253 33.7434 15.9253 33.7434 15.9253 33.7434C15.9253 33.7434 15.9253 33.7434 15.9253 33.7434C15.9253 33.7434 15.9253 33.7434 15.9253 33.7434C15.9253 33.7434 15.9253 33.7434 15.9253 33.7434C15.9253 33.7434 15.9253 33.7434 15.9253 33.7434C15.9253 33.7434 15.9253 33.7434 15.9253 33.7434C15.9253 33.7434 15.9253 33.7434 15.9253 33.7434C15.9253 33.7434 15.9253 33.7434 15.9253 33.7434C15.9253 33.7434 15.9253 33.7434 15.9253 33.7434C15.9253 33.7434 15.9253 33.7434 15.9253 33.7434C15.9253 33.7434 15.9253 33.7434 15.9253 33.7434C15.9253 33.7434 15.9253 33.7434 15.9253 33.7434C15.9253 33.7434 15.9253 33.7434 15.9253 33.7434C15.9253 33.7434 15.9253 33.7434 15.9253 33.7434C15.9253 33.7434 15.9253 33.7434 15.9253 33.7434C15.9253 33.7434 15.9253 33.7434 15.9253 33.7434C15.9253 33.7434 15.9253 33.7434 15.9253 33.7434C15.9253 33.7434 15.9253 33.7434 15.9253 33.7434C15.9253 33.7434 15.9253 33.7434 15.9253 33.7434C15.9253 33.7434 15.9253 33.7434 15.9253 33.7434C15.9253 33.7434 15.9253 33.7434 15.9253 33.7434C15.9253 33.7434 15.9253 33.7434 15.9253 33.7434C15.9253 33.7434 15.9253 33.7434 15.9253 33.7434C15.9253 33.7434 15.9253 33.7434 15.9253 33.7434C15.9253 33.7434 15.9253 33.7434 15.9253 33.7434C15.9253 33.7434 15.9253 33.7434 15.9253 33.7434C15.9253 33.7434 15.9253 33.7434 15.9253 33.7434C15.9253 33.7434 15.9253 33.7434 15.9253 33.7434C15.9253 33.7434 15.9253 33.7434 15.9253 33.7434C15.9253 33.7434 15.9253 33.7434 15.9253 33.7434C15.9253 33.7434 15.9253 33.7434 15.9253 33.7434C15.9253 33.7434 15.9253 33.7434 15.9253 33.7434C15.9253 33.7434 15.9253 33.7434 15.9253 33.7434C15.9253 33.7434 15.9253 33.7434 15.9253 33.7434C15.9253 33.7434 15.9253 33.7434 15.9253 33.7434C15.9253 33.7434 15.9253 33.7434 15.9253 33.7434C15.9253 33.7434 15.9253 33.7434 15.9253 33.7434C15.9253 33.7434 15.9253 33.7434 15.9253 33.7434C15.9253 33.7434 15.9253 33.7434 15.9253 33.7434C15.9253 33.7434 15.9253 33.7434 15.9253 33.7434C15.9253 33.7434 15.9253 33.7434 15.9253 33.7434C15.9253 33.7434 15.9253 33.7434 15.9253 33.7434C15.9253 33.7434 15.9253 33.7434 15.9253 33.7434C15.9253 33.7434 15.9253 33.7434 15.9253 33.7434C15.9253 33.7434 15.9253 33.7434 15.9253 33.7434C15.9253 33.7434 15.9253 33.7434 15.9253 33.7434C15.9253 33.7434 15.9253 33.7434 15.9253 33.7434C15.9253 33.7434 15.9253 33.7434 15.9253 33.7434C15.9253 33.7434 15.9253 33.7434 15.9253 33.7434C15.9253 33.7434 15.9253 33.7434 15.9253 33.7434C15.9253 33.7434 15.9253 33.7434 15.9253 33.7434C15.9253 33.7434 15.9253 33.7434 15.9253 33.7434C15.9253 33.7434 15.9253 33.7434 15.9253 33.7434C15.9253 33.7434 15.9253 33.7434 15.9253 33.7434C15.9253 33.7434 15.9253 33.7434 15.9253 33.7434C15.9253 33.7434 15.9253 33.7434 15.9253 33.7434C15.9253 33.7434 15.9253 33.7434 15.9253 33.7434C15.9253 33.7434 15.9253 33.7434 15.9253 33.7434C15.9253 33.7434 15.9253 33.7434 15.9253 33.7434C15.9253 33.7434 15.9253 33.7434 15.9253 33.7434C15.9253 33.7434 15.9253 33.7434 15.9253 33.7434C15.9253 33.7434 15.9253 33.7434 15.9253 33.7434C15.9253 33.7434 15.9253 33.7434 15.9253 33.7434C15.9253 33.7434 15.9253 33.7434 15.9253 33.7434C15.9253 33.7434 15.9253 33.7434 15.9253 33.7434C15.9253 33.7434 15.9253 33.7434 15.9253 33.7434C15.9253 33.7434 15.9253 33.7434 15.9253 33.7434C15.9253 33.7434 15.9253 33.7434 15.9253 33.7434C15.9253 33.7434 15.9253 33.7434 15.9253 33.7434C15.9253 33.7434 15.9253 33.7434 15.9253 33.7434C15.9253 33.7434 15.9253 33.7434 15.9253 33.7434C15.9253 33.7434 15.9253 33.7434 15.9253 33.7434C15.9253 33.7434 15.9253 33.7434 15.9253 33.7434C15.9253 33.7434 15.9253 33.7434 15.9253 33.7434C15.9253 33.7434 15.9253 33.7434 15.9253 33.7434C15.9253 33.7434 15.9253 33.7434 15.9253 33.7434C15.9253 33.7434 15.9253 33.7434 15.9253 33.7434C15.9253 33.7434 15.9253 33.7434 15.9253 33.7434C15.9253 33.7434 15.9253 33.7434 15.9253 33.7434C15.9253 33.7434 15.9253 33.7434 15.9253 33.7434C15.9253 33.7434 15.9253 33.7434 15.9253 33.7434C15.9253 33.7434 15.9253 33.7434 15.9253 33.7434C15.9253 33.7434 15.9253 33.7434 15.9253 33.7434C15.9253 33.7434 15.9253 33.7434 15.9253 33.7434C15.9253 33.7434 15.9253 33.7434 15.9253 33.7434C15.9253 33.7434 15.9253 33.7434 15.9253 33.7434C15.9253 33.7434 15.9253 33.7434 15.9253 33.7434C15.9253 33.7434 15.9253 33.7434 15.9253 33.7434C15.9253 33.7434 15.9253 33.7434 15.9253 33.7434C15.9253 33.7434 15.9253 33.7434 15.9253 33.7434C15.9253 33.7434 15.9253 33.7434 15.9253 33.7434C15.9253 33.7434 15.9253 33.7434 15.9253 33.7434C15.9253 33.7434 15.9253 33.7434 15.9253 33.7434C15.9253 33.7434 15.9253 33.7434 15.9253 33.7434C15.9253 33.7434 15.9253 33.7434 15.9253 33.7434C15.9253 33.7434 15.9253 33.7434 15.9253 33.7434C15.9253 33.7434 15.9253 33.7434 15.9253 33.7434C15.9253 33.7434 15.9253 33.7434 15.9253 33.7434C15.9253 33.7434 15.9253 33.7434 15.9253 33.7434C15.9253 33.7434 15.9253 33.7434 15.9253 33.7434C15.9253 33.7434 15.9253 33.7434 15.9253 33.7434C15.9253 33.7434 15.9253 33.7434 15.9253 33.7434C15.9253 33.7434 15.9253 33.7434 15.9253 33.7434C15.9253 33.7434 15.9253 33.7434 15.9253 33.7434C15.9253 33.7434 15.9253 33.7434 15.9253 33.7434C15.9253 33.7434 15.9253 33.7434 15.9253 33.7434C15.9253 33.7434 15.9253 33.7434 15.9253 33.7434C15.9253 33.7434 15.9253 33.7434 15.9253 33.7434C15.9253 33.7434 15.9253 33.7434 15.9253 33.7434C15.9253 33.7434 15.9253 33.7434 15.9253 33.7434C15.9253 33.7434 15.9253 33.7434 15.9253 33.7434C15.9253 33.7434 15.9253 33.7434 15.9253 33.7434C15.9253 33.7434 15.9253 33.7434 15.9253 33.7434C15.9253 33.7434 15.9253 33.7434 15.9253 33.7434C15.9253 33.7434 15.9253 33.7434 15.9253 33.7434C15.9253 33.7434 15.9253 33.7434 15.9253 33.7434C15.9253 33.7434 15.9253 33.7434 15.9253 33.7434C15.9253 33.7434 15.9253 33.7434 15.9253 33.7434C15.9253 33.7434 15.9253 33.7434 15.9253 33.7434C15.9253 33.7434 15.9253 33.7434 15.9253 33.7434C15.9253 33.7434 15.9253 33.7434 15.9253 33.7434C15.9253 33.7434 15.9253 33.7434 15.9253 33.7434C15.9253 33.7434 15.9253 33.7434 15.9253 33.7434C15.9253 33.7434 15.9253 33.7434 15.9253 33.7434C15.9253 33.7434 15.9253 33.7434 15.9253 33.7434C15.9253 33.7434 15.9253 33.7434 15.9253 33.7434C15.9253 33.7434 15.9253 33.7434 15.9253 33.7434C15.9253 33.7434 15.9253 33.7434 15.9253 33.7434C15.9253 33.7434 15.9253 33.7434 15.9253 33.7434C15.9253 33.7434 15.9253 33.7434 15.9253 33.7434C15.9253 33.7434 15.9253 33.7434 15.9253 33.7434C15.9253 33.7434 15.9253 33.7434 15.9253 33.7434C15.9253 33.7434 15.9253 33.7434 15.9253 33.7434C15.9253 33.7434 15.9253 33.7434 15.9253 33.7434C15.9253 33.7434 15.9253 33.7434 15.9253 33.7434C15.9253 33.7434 15.9253 33.7434 15.9253 33.7434C15.9253 33.7434 15.9253 33.7434 15.9253 33.7434C15.9253 33.7434 15.9253 33.7434 15.9253 33.7434C15.9253 33.7434 15.9253 33.7434 15.9253 33.7434C15.9253 33.7434 15.9253 33.7434 15.9253 33.7434C15.9253 33.7434 15.9253 33.7434 15.9253 33.7434C15.9253 33.7434 15.9253 33.7434 15.9253 33.7434C15.9253 33.7434 15.9253 33.7434 15.9253 33.7434C15.9253 33.7434 15.9253 33.7434 15.9253 33.7434C15.9253 33.7434 15.9253 33.7434 15.9253 33.7434C15.9253 33.7434 15.9253 33.7434 15.9253 33.7434C15.9253 33.7434 15.9253 33.7434 15.9253 33.7434C15.9253 33.7434 15.9253 33.7434 15.9253 33.7434C15.9253 33.7434 15.9253 33.7434 15.9253 33.7434C15.9253 33.7434 15.9253 33.7434 15.9253 33.7434C15.9253 33.7434 15.9253 33.7434 15.9253 33.7434C15.9253 33.7434 15.9253 33.7434 15.9253 33.7434C15.9253 33.7434 15.9253 33.7434 15.9253 33.7434C15.9253 33.7434 15.9253 33.7434 15.9253 33.7434C15.9253 33.7434 15.9253 33.7434 15.9253 33.7434C15.9253 33.7434 15.9253 33.7434 15.9253 33.7434C15.9253 33.7434 15.9253 33.7434 15.9253 33.7434C15.9253 33.7434 15.9253 33.7434 15.9253 33.7434C15.9253 33.7434 15.9253 33.7434 15.9253 33.7434C15.9253 33.7434 15.9253 33.7434 15.9253 33.7434C15.9253 33.7434 15.9253 33.7434 15.9253 33.7434C15.9253 33.7434 15.9253 33.7434 15.9253 33.7434C15.9253 33.7434 15.9253 33.7434 15.9253 33.7434C15.9253 33.7434 15.9253 33.7434 15.9253 33.7434C15.9253 33.7434 15.9253 33.7434 15.9253 33.7434C15.9253 33.7434 15.9253 33.7434 15.9253 33.7434C15.9253 33.7434 15.9253 33.7434 15.9253 33.7434C15.9253 33.7434 15.9253 33.7434 15.9253 33.7434C15.9253 33.7434 15.9253 33.7434 15.9253 33.7434C15.9253 33.7434 15.9253 33.7434 15.9253 33.7434C15.9253 33.7434 15.9253 33.7434 15.9253 33.7434C15.9253 33.7434 15.9253 33.7434 15.9253 33.7434C15.9253 33.7434 15.9253 33.7434 15.9253 33.7434C15.9253 33.7434 15.9253 33.7434 15.9253 33.7434C15.9253 33.7434 15.9253 33.7434 15.9253 33.7434C15.9253 33.7434 15.9253 33.7434 15.9253 33.7434C15.9253 33.7434 15.9253 33.7434 15.9253 33.7434C15.9253 33.7434 15.9253 33.7434 15.9253 33.7434C15.9253 33.7434 15.9253 33.7434 15.9253 33.7434C15.9253 33.7434 15.9253 33.7434 15.9253 33.7434C15.9253 33.7434 15.9253 33.7434 15.9253 33.7434C15.9253 33.7434 15.9253 33.7434 15.9253 33.7434C15.9253 33.7434 15.9253 33.7434 15.9253 33.7434C15.9253 33.7434 15.9253 33.7434 15.9253 33.7434C15.9253 33.7434 15.9253 33.7434 15.9253 33.7434C15.9253 33.7434 15.9253 33.7434 15.9253 33.7434C15.9253 33.7434 15.9253 33.7434 15.9253 33.7434C15.9253 33.7434 15.9253 33.7434 15.9253 33.7434C15.9253 33.7434 15.9253 33.7434 15.9253 33.7434C15.9253 33.7434 15.9253 33.7434 15.9253 33.7434C15.9253 33.7434 15.9253 33.7434 15.9253 33.7434C15.9253 33.7434 15.9253 33.7434 15.9253 33.7434C15.9253 33.7434 15.9253 33.7434 15.9253 33.7434C15.9253 33.7434 15.9253 33.7434 15.9253 33.7434C15.9253 33.7434 15.9253 33.7434 15.9253 33.7434C15.9253 33.7434 15.9253 33.7434 15.9253 33.7434C15.9253 33.7434 15.9253 33.7434 15.9253 33.7434C15.9253 33.7434 15.9253 33.7434 15.9253 33.7434C15.9253 33.7434 15.9253 33.7434 15.9253 33.7434C15.9253 33.7434 15.9253 33.7434 15.9253 33.7434C15.9253 33.7434 15.9253 33.7434 15.9253 33.7434C15.9253 33.7434 15.9253 33.7434 15.9253 33.7434C15.9253 33.7434 15.9253 33.7434 15.9253 33.7434C15.9253 33.7434 15.9253 33.7434 15.9253 33.7434C15.9253 33.7434 15.9253 33.7434 15.9253 33.7434C15.9253 33.7434 15.9253 33.7434 15.9253 33.7434C15.9253 33.7434 15.9253 33.7434 15.9253 33.7434C15.9253 33.7434 15.9253 33.7434 15.9253 33.7434C15.9253 33.7434 15.9253 33.7434 15.9253 33.7434C15.9253 33.7434 15.9253 33.7434 15.9253 33.7434C15.9253 33.7434 15.9253 33.7434 15.9253 33.7434C15.9253 33.7434 15.9253 33.7434 15.9253 33.7434C15.9253 33.7434 15.9253 33.7434 15.9253 33.7434C15.9253 33.7434 15.9253 33.7434 15.9253 33.7434C15.9253 33.7434 15.9253 33.7434 15.9253 33.7434C15.9253 33.7434 15.9253 33.7434 15.9253 33.7434C15.9253 33.7434 15.9253 33.7434 15.9253 33.7434C15.9253 33.7434 15.9253 33.7434 15.9253 33.7434C15.9253 33.7434 15.9253 33.7434 15.9253 33.7434C15.9253 33.7434 15.9253 33.7434 15.9253 33.7434C15.9253 33.7434 15.9253 33.7434 15.9253 33.7434C15.9253 33.7434 15.9253 33.7434 15.9253 33.7434C15.9253 33.7434 15.9253 33.7434 15.9253 33.7434C15.9253 33.7434 15.9253 33.7434 15.9253 33.7434C15.9253 33.7434 15.9253 33.7434 15.9253 33.7434C15.9253 33.7434 15.9253 33.7434 15.9253 33.7434C15.9253 33.7434 15.9253 33.7434 15.9253 33.7434C15.9253 33.7434 15.9253 33.7434 15.9253 33.7434C15.9253 33.7434 15.9253 33.7434 15.9253 33.7434C15.9253 33.7434 15.9253 33.7434 15.9253 33.7434C15.9253 33.7434 15.9253 33.7434 15.9253 33.7434C15.9253 33.7434 15.9253 33.7434 15.9253 33.7434C15.9253 33.7434 15.9253 33.7434 15.9253 33.7434V35.7434C15.9253 35.7434 15.9253 35.7434 15.9253 35.7434C15.9253 35.7434 15.9253 35.7434 15.9253 35.7434C15.9253 35.7434 15.9253 35.7434 15.9253 35.7434C15.9253 35.7434 15.9253 35.7434 15.9253 35.7434C15.9253 35.7434 15.9253 35.7434 15.9253 35.7434C15.9253 35.7434 15.9253 35.7434 15.9253 35.7434C15.9253 35.7434 15.9253 35.7434 15.9253 35.7434C15.9253 35.7434 15.9253 35.7434 15.9253 35.7434C15.9253 35.7434 15.9253 35.7434 15.9253 35.7434C15.9253 35.7434 15.9253 35.7434 15.9253 35.7434C15.9253 35.7434 15.9253 35.7434 15.9253 35.7434C15.9253 35.7434 15.9253 35.7434 15.9253 35.7434C15.9253 35.7434 15.9253 35.7434 15.9253 35.7434C15.9253 35.7434 15.9253 35.7434 15.9253 35.7434C15.9253 35.7434 15.9253 35.7434 15.9253 35.7434C15.9253 35.7434 15.9253 35.7434 15.9253 35.7434C15.9253 35.7434 15.9253 35.7434 15.9253 35.7434C15.9253 35.7434 15.9253 35.7434 15.9253 35.7434C15.9253 35.7434 15.9253 35.7434 15.9253 35.7434C15.9253 35.7434 15.9253 35.7434 15.9253 35.7434C15.9253 35.7434 15.9253 35.7434 15.9253 35.7434C15.9253 35.7434 15.9253 35.7434 15.9253 35.7434C15.9253 35.7434 15.9253 35.7434 15.9253 35.7434C15.9253 35.7434 15.9253 35.7434 15.9253 35.7434C15.9253 35.7434 15.9253 35.7434 15.9253 35.7434C15.9253 35.7434 15.9253 35.7434 15.9253 35.7434C15.9253 35.7434 15.9253 35.7434 15.9253 35.7434C15.9253 35.7434 15.9253 35.7434 15.9253 35.7434C15.9253 35.7434 15.9253 35.7434 15.9253 35.7434C15.9253 35.7434 15.9253 35.7434 15.9253 35.7434C15.9253 35.7434 15.9253 35.7434 15.9253 35.7434C15.9253 35.7434 15.9253 35.7434 15.9253 35.7434C15.9253 35.7434 15.9253 35.7434 15.9253 35.7434C15.9253 35.7434 15.9253 35.7434 15.9253 35.7434C15.9253 35.7434 15.9253 35.7434 15.9253 35.7434C15.9253 35.7434 15.9253 35.7434 15.9253 35.7434C15.9253 35.7434 15.9253 35.7434 15.9253 35.7434C15.9253 35.7434 15.9253 35.7434 15.9253 35.7434C15.9253 35.7434 15.9253 35.7434 15.9253 35.7434C15.9253 35.7434 15.9253 35.7434 15.9253 35.7434C15.9253 35.7434 15.9253 35.7434 15.9253 35.7434C15.9253 35.7434 15.9253 35.7434 15.9253 35.7434C15.9253 35.7434 15.9253 35.7434 15.9253 35.7434C15.9253 35.7434 15.9253 35.7434 15.9253 35.7434C15.9253 35.7434 15.9253 35.7434 15.9253 35.7434C15.9253 35.7434 15.9253 35.7434 15.9253 35.7434C15.9253 35.7434 15.9253 35.7434 15.9253 35.7434C15.9253 35.7434 15.9253 35.7434 15.9253 35.7434C15.9253 35.7434 15.9253 35.7434 15.9253 35.7434C15.9253 35.7434 15.9253 35.7434 15.9253 35.7434C15.9253 35.7434 15.9253 35.7434 15.9253 35.7434C15.9253 35.7434 15.9253 35.7434 15.9253 35.7434C15.9253 35.7434 15.9253 35.7434 15.9253 35.7434C15.9253 35.7434 15.9253 35.7434 15.9253 35.7434C15.9253 35.7434 15.9253 35.7434 15.9253 35.7434C15.9253 35.7434 15.9253 35.7434 15.9253 35.7434C15.9253 35.7434 15.9253 35.7434 15.9253 35.7434C15.9253 35.7434 15.9253 35.7434 15.9253 35.7434C15.9253 35.7434 15.9253 35.7434 15.9253 35.7434C15.9253 35.7434 15.9253 35.7434 15.9253 35.7434C15.9253 35.7434 15.9253 35.7434 15.9253 35.7434C15.9253 35.7434 15.9253 35.7434 15.9253 35.7434C15.9253 35.7434 15.9253 35.7434 15.9253 35.7434C15.9253 35.7434 15.9253 35.7434 15.9253 35.7434C15.9253 35.7434 15.9253 35.7434 15.9253 35.7434C15.9253 35.7434 15.9253 35.7434 15.9253 35.7434C15.9253 35.7434 15.9253 35.7434 15.9253 35.7434C15.9253 35.7434 15.9253 35.7434 15.9253 35.7434C15.9253 35.7434 15.9253 35.7434 15.9253 35.7434C15.9253 35.7434 15.9253 35.7434 15.9253 35.7434C15.9253 35.7434 15.9253 35.7434 15.9253 35.7434C15.9253 35.7434 15.9253 35.7434 15.9253 35.7434C15.9253 35.7434 15.9253 35.7434 15.9253 35.7434C15.9253 35.7434 15.9253 35.7434 15.9253 35.7434C15.9253 35.7434 15.9253 35.7434 15.9253 35.7434C15.9253 35.7434 15.9253 35.7434 15.9253 35.7434C15.9253 35.7434 15.9253 35.7434 15.9253 35.7434C15.9253 35.7434 15.9253 35.7434 15.9253 35.7434C15.9253 35.7434 15.9253 35.7434 15.9253 35.7434C15.9253 35.7434 15.9253 35.7434 15.9253 35.7434C15.9253 35.7434 15.9253 35.7434 15.9253 35.7434C15.9253 35.7434 15.9253 35.7434 15.9253 35.7434C15.9253 35.7434 15.9253 35.7434 15.9253 35.7434C15.9253 35.7434 15.9253 35.7434 15.9253 35.7434C15.9253 35.7434 15.9253 35.7434 15.9253 35.7434C15.9253 35.7434 15.9253 35.7434 15.9253 35.7434C15.9253 35.7434 15.9253 35.7434 15.9253 35.7434C15.9253 35.7434 15.9253 35.7434 15.9253 35.7434C15.9253 35.7434 15.9253 35.7434 15.9253 35.7434C15.9253 35.7434 15.9253 35.7434 15.9253 35.7434C15.9253 35.7434 15.9253 35.7434 15.9253 35.7434C15.9253 35.7434 15.9253 35.7434 15.9253 35.7434C15.9253 35.7434 15.9253 35.7434 15.9253 35.7434C15.9253 35.7434 15.9253 35.7434 15.9253 35.7434C15.9253 35.7434 15.9253 35.7434 15.9253 35.7434C15.9253 35.7434 15.9253 35.7434 15.9253 35.7434C15.9253 35.7434 15.9253 35.7434 15.9253 35.7434C15.9253 35.7434 15.9253 35.7434 15.9253 35.7434C15.9253 35.7434 15.9253 35.7434 15.9253 35.7434C15.9253 35.7434 15.9253 35.7434 15.9253 35.7434C15.9253 35.7434 15.9253 35.7434 15.9253 35.7434C15.9253 35.7434 15.9253 35.7434 15.9253 35.7434C15.9253 35.7434 15.9253 35.7434 15.9253 35.7434C15.9253 35.7434 15.9253 35.7434 15.9253 35.7434C15.9253 35.7434 15.9253 35.7434 15.9253 35.7434C15.9253 35.7434 15.9253 35.7434 15.9253 35.7434C15.9253 35.7434 15.9253 35.7434 15.9253 35.7434C15.9253 35.7434 15.9253 35.7434 15.9253 35.7434C15.9253 35.7434 15.9253 35.7434 15.9253 35.7434C15.9253 35.7434 15.9253 35.7434 15.9253 35.7434C15.9253 35.7434 15.9253 35.7434 15.9253 35.7434C15.9253 35.7434 15.9253 35.7434 15.9253 35.7434C15.9253 35.7434 15.9253 35.7434 15.9253 35.7434C15.9253 35.7434 15.9253 35.7434 15.9253 35.7434C15.9253 35.7434 15.9253 35.7434 15.9253 35.7434C15.9253 35.7434 15.9253 35.7434 15.9253 35.7434C15.9253 35.7434 15.9253 35.7434 15.9253 35.7434C15.9253 35.7434 15.9253 35.7434 15.9253 35.7434C15.9253 35.7434 15.9253 35.7434 15.9253 35.7434C15.9253 35.7434 15.9253 35.7434 15.9253 35.7434C15.9253 35.7434 15.9253 35.7434 15.9253 35.7434C15.9253 35.7434 15.9253 35.7434 15.9253 35.7434C15.9253 35.7434 15.9253 35.7434 15.9253 35.7434C15.9253 35.7434 15.9253 35.7434 15.9253 35.7434C15.9253 35.7434 15.9253 35.7434 15.9253 35.7434C15.9253 35.7434 15.9253 35.7434 15.9253 35.7434C15.9253 35.7434 15.9253 35.7434 15.9253 35.7434C15.9253 35.7434 15.9253 35.7434 15.9253 35.7434C15.9253 35.7434 15.9253 35.7434 15.9253 35.7434C15.9253 35.7434 15.9253 35.7434 15.9253 35.7434C15.9253 35.7434 15.9253 35.7434 15.9253 35.7434C15.9253 35.7434 15.9253 35.7434 15.9253 35.7434C15.9253 35.7434 15.9253 35.7434 15.9253 35.7434C15.9253 35.7434 15.9253 35.7434 15.9253 35.7434C15.9253 35.7434 15.9253 35.7434 15.9253 35.7434C15.9253 35.7434 15.9253 35.7434 15.9253 35.7434C15.9253 35.7434 15.9253 35.7434 15.9253 35.7434C15.9253 35.7434 15.9253 35.7434 15.9253 35.7434C15.9253 35.7434 15.9253 35.7434 15.9253 35.7434C15.9253 35.7434 15.9253 35.7434 15.9253 35.7434C15.9253 35.7434 15.9253 35.7434 15.9253 35.7434C15.9253 35.7434 15.9253 35.7434 15.9253 35.7434C15.9253 35.7434 15.9253 35.7434 15.9253 35.7434C15.9253 35.7434 15.9253 35.7434 15.9253 35.7434C15.9253 35.7434 15.9253 35.7434 15.9253 35.7434C15.9253 35.7434 15.9253 35.7434 15.9253 35.7434C15.9253 35.7434 15.9253 35.7434 15.9253 35.7434C15.9253 35.7434 15.9253 35.7434 15.9253 35.7434C15.9253 35.7434 15.9253 35.7434 15.9253 35.7434C15.9253 35.7434 15.9253 35.7434 15.9253 35.7434C15.9253 35.7434 15.9253 35.7434 15.9253 35.7434C15.9253 35.7434 15.9253 35.7434 15.9253 35.7434C15.9253 35.7434 15.9253 35.7434 15.9253 35.7434C15.9253 35.7434 15.9253 35.7434 15.9253 35.7434C15.9253 35.7434 15.9253 35.7434 15.9253 35.7434C15.9253 35.7434 15.9253 35.7434 15.9253 35.7434C15.9253 35.7434 15.9253 35.7434 15.9253 35.7434C15.9253 35.7434 15.9253 35.7434 15.9253 35.7434C15.9253 35.7434 15.9253 35.7434 15.9253 35.7434C15.9253 35.7434 15.9253 35.7434 15.9253 35.7434C15.9253 35.7434 15.9253 35.7434 15.9253 35.7434C15.9253 35.7434 15.9253 35.7434 15.9253 35.7434C15.9253 35.7434 15.9253 35.7434 15.9253 35.7434C15.9253 35.7434 15.9253 35.7434 15.9253 35.7434C15.9253 35.7434 15.9253 35.7434 15.9253 35.7434C15.9253 35.7434 15.9253 35.7434 15.9253 35.7434C15.9253 35.7434 15.9253 35.7434 15.9253 35.7434C15.9253 35.7434 15.9253 35.7434 15.9253 35.7434C15.9253 35.7434 15.9253 35.7434 15.9253 35.7434C15.9253 35.7434 15.9253 35.7434 15.9253 35.7434C15.9253 35.7434 15.9253 35.7434 15.9253 35.7434C15.9253 35.7434 15.9253 35.7434 15.9253 35.7434C15.9253 35.7434 15.9253 35.7434 15.9253 35.7434C15.9253 35.7434 15.9253 35.7434 15.9253 35.7434C15.9253 35.7434 15.9253 35.7434 15.9253 35.7434C15.9253 35.7434 15.9253 35.7434 15.9253 35.7434C15.9253 35.7434 15.9253 35.7434 15.9253 35.7434C15.9253 35.7434 15.9253 35.7434 15.9253 35.7434C15.9253 35.7434 15.9253 35.7434 15.9253 35.7434C15.9253 35.7434 15.9253 35.7434 15.9253 35.7434C15.9253 35.7434 15.9253 35.7434 15.9253 35.7434C15.9253 35.7434 15.9253 35.7434 15.9253 35.7434C15.9253 35.7434 15.9253 35.7434 15.9253 35.7434C15.9253 35.7434 15.9253 35.7434 15.9253 35.7434C15.9253 35.7434 15.9253 35.7434 15.9253 35.7434C15.9253 35.7434 15.9253 35.7434 15.9253 35.7434C15.9253 35.7434 15.9253 35.7434 15.9253 35.7434C15.9253 35.7434 15.9253 35.7434 15.9253 35.7434C15.9253 35.7434 15.9253 35.7434 15.9253 35.7434C15.9253 35.7434 15.9253 35.7434 15.9253 35.7434C15.9253 35.7434 15.9253 35.7434 15.9253 35.7434C15.9253 35.7434 15.9253 35.7434 15.9253 35.7434C15.9253 35.7434 15.9253 35.7434 15.9253 35.7434C15.9253 35.7434 15.9253 35.7434 15.9253 35.7434C15.9253 35.7434 15.9253 35.7434 15.9253 35.7434C15.9253 35.7434 15.9253 35.7434 15.9253 35.7434C15.9253 35.7434 15.9253 35.7434 15.9253 35.7434C15.9253 35.7434 15.9253 35.7434 15.9253 35.7434C15.9253 35.7434 15.9253 35.7434 15.9253 35.7434C15.9253 35.7434 15.9253 35.7434 15.9253 35.7434C15.9253 35.7434 15.9253 35.7434 15.9253 35.7434C15.9253 35.7434 15.9253 35.7434 15.9253 35.7434C15.9253 35.7434 15.9253 35.7434 15.9253 35.7434C15.9253 35.7434 15.9253 35.7434 15.9253 35.7434C15.9253 35.7434 15.9253 35.7434 15.9253 35.7434C15.9253 35.7434 15.9253 35.7434 15.9253 35.7434C15.9253 35.7434 15.9253 35.7434 15.9253 35.7434C15.9253 35.7434 15.9253 35.7434 15.9253 35.7434C15.9253 35.7434 15.9253 35.7434 15.9253 35.7434C15.9253 35.7434 15.9253 35.7434 15.9253 35.7434C15.9253 35.7434 15.9253 35.7434 15.9253 35.7434C15.9253 35.7434 15.9253 35.7434 15.9253 35.7434C15.9253 35.7434 15.9253 35.7434 15.9253 35.7434C15.9253 35.7434 15.9253 35.7434 15.9253 35.7434C15.9253 35.7434 15.9253 35.7434 15.9253 35.7434C15.9253 35.7434 15.9253 35.7434 15.9253 35.7434C15.9253 35.7434 15.9253 35.7434 15.9253 35.7434C15.9253 35.7434 15.9253 35.7434 15.9253 35.7434C15.9253 35.7434 15.9253 35.7434 15.9253 35.7434C15.9253 35.7434 15.9253 35.7434 15.9253 35.7434C15.9253 35.7434 15.9253 35.7434 15.9253 35.7434C15.9253 35.7434 15.9253 35.7434 15.9253 35.7434C15.9253 35.7434 15.9253 35.7434 15.9253 35.7434C15.9253 35.7434 15.9253 35.7434 15.9253 35.7434C15.9253 35.7434 15.9253 35.7434 15.9253 35.7434C15.9253 35.7434 15.9253 35.7434 15.9253 35.7434C15.9253 35.7434 15.9253 35.7434 15.9253 35.7434C15.9253 35.7434 15.9253 35.7434 15.9253 35.7434C15.9253 35.7434 15.9253 35.7434 15.9253 35.7434C15.9253 35.7434 15.9253 35.7434 15.9253 35.7434C15.9253 35.7434 15.9253 35.7434 15.9253 35.7434C15.9253 35.7434 15.9253 35.7434 15.9253 35.7434C15.9253 35.7434 15.9253 35.7434 15.9253 35.7434C15.9253 35.7434 15.9253 35.7434 15.9253 35.7434C15.9253 35.7434 15.9253 35.7434 15.9253 35.7434C15.9253 35.7434 15.9253 35.7434 15.9253 35.7434C15.9253 35.7434 15.9253 35.7434 15.9253 35.7434C15.9253 35.7434 15.9253 35.7434 15.9253 35.7434C15.9253 35.7434 15.9253 35.7434 15.9253 35.7434C15.9253 35.7434 15.9253 35.7434 15.9253 35.7434C15.9253 35.7434 15.9253 35.7434 15.9253 35.7434C15.9253 35.7434 15.9253 35.7434 15.9253 35.7434C15.9253 35.7434 15.9253 35.7434 15.9253 35.7434C15.9253 35.7434 15.9253 35.7434 15.9253 35.7434C15.9253 35.7434 15.9253 35.7434 15.9253 35.7434C15.9253 35.7434 15.9253 35.7434 15.9253 35.7434C15.9253 35.7434 15.9253 35.7434 15.9253 35.7434C15.9253 35.7434 15.9253 35.7434 15.9253 35.7434C15.9253 35.7434 15.9253 35.7434 15.9253 35.7434C15.9253 35.7434 15.9253 35.7434 15.9253 35.7434C15.9253 35.7434 15.9253 35.7434 15.9253 35.7434C15.9253 35.7434 15.9253 35.7434 15.9253 35.7434C15.9253 35.7434 15.9253 35.7434 15.9253 35.7434C15.9253 35.7434 15.9253 35.7434 15.9253 35.7434C15.9253 35.7434 15.9253 35.7434 15.9253 35.7434C15.9253 35.7434 15.9253 35.7434 15.9253 35.7434C15.9253 35.7434 15.9253 35.7434 15.9253 35.7434C15.9253 35.7434 15.9253 35.7434 15.9253 35.7434C15.9253 35.7434 15.9253 35.7434 15.9253 35.7434C15.9253 35.7434 15.9253 35.7434 15.9253 35.7434C15.9253 35.7434 15.9253 35.7434 15.9253 35.7434C15.9253 35.7434 15.9253 35.7434 15.9253 35.7434C15.9253 35.7434 15.9253 35.7434 15.9253 35.7434C15.9253 35.7434 15.9253 35.7434 15.9253 35.7434C15.9253 35.7434 15.9253 35.7434 15.9253 35.7434C15.9253 35.7434 15.9253 35.7434 15.9253 35.7434C15.9253 35.7434 15.9253 35.7434 15.9253 35.7434C15.9253 35.7434 15.9253 35.7434 15.9253 35.7434C15.9253 35.7434 15.9253 35.7434 15.9253 35.7434C15.9253 35.7434 15.9253 35.7434 15.9253 35.7434C15.9253 35.7434 15.9253 35.7434 15.9253 35.7434C15.9253 35.7434 15.9253 35.7434 15.9253 35.7434C15.9253 35.7434 15.9253 35.7434 15.9253 35.7434C15.9253 35.7434 15.9253 35.7434 15.9253 35.7434C15.9253 35.7434 15.9253 35.7434 15.9253 35.7434C15.9253 35.7434 15.9253 35.7434 15.9253 35.7434C15.9253 35.7434 15.9253 35.7434 15.9253 35.7434C15.9253 35.7434 15.9253 35.7434 15.9253 35.7434C15.9253 35.7434 15.9253 35.7434 15.9253 35.7434C15.9253 35.7434 15.9253 35.7434 15.9253 35.7434C15.9253 35.7434 15.9253 35.7434 15.9253 35.7434C15.9253 35.7434 15.9253 35.7434 15.9253 35.7434C15.9253 35.7434 15.9253 35.7434 15.9253 35.7434C15.9253 35.7434 15.9253 35.7434 15.9253 35.7434C15.9253 35.7434 15.9253 35.7434 15.9253 35.7434C15.9253 35.7434 15.9253 35.7434 15.9253 35.7434C15.9253 35.7434 15.9253 35.7434 15.9253 35.7434C15.9253 35.7434 15.9253 35.7434 15.9253 35.7434C15.9253 35.7434 15.9253 35.7434 15.9253 35.7434C15.9253 35.7434 15.9253 35.7434 15.9253 35.7434C15.9253 35.7434 15.9253 35.7434 15.9253 35.7434C15.9253 35.7434 15.9253 35.7434 15.9253 35.7434C15.9253 35.7434 15.9253 35.7434 15.9253 35.7434C15.9253 35.7434 15.9253 35.7434 15.9253 35.7434C15.9253 35.7434 15.9253 35.7434 15.9253 35.7434C15.9253 35.7434 15.9253 35.7434 15.9253 35.7434C15.9253 35.7434 15.9253 35.7434 15.9253 35.7434C15.9253 35.7434 15.9253 35.7434 15.9253 35.7434C15.9253 35.7434 15.9253 35.7434 15.9253 35.7434C15.9253 35.7434 15.9253 35.7434 15.9253 35.7434C15.9253 35.7434 15.9253 35.7434 15.9253 35.7434C15.9253 35.7434 15.9253 35.7434 15.9253 35.7434C15.9253 35.7434 15.9253 35.7434 15.9253 35.7434C15.9253 35.7434 15.9253 35.7434 15.9253 35.7434C15.9253 35.7434 15.9253 35.7434 15.9253 35.7434C15.9253 35.7434 15.9253 35.7434 15.9253 35.7434C15.9253 35.7434 15.9253 35.7434 15.9253 35.7434C15.9253 35.7434 15.9253 35.7434 15.9253 35.7434C15.9253 35.7434 15.9253 35.7434 15.9253 35.7434C15.9253 35.7434 15.9253 35.7434 15.9253 35.7434C15.9253 35.7434 15.9253 35.7434 15.9253 35.7434C15.9253 35.7434 15.9253 35.7434 15.9253 35.7434C15.9253 35.7434 15.9253 35.7434 15.9253 35.7434C15.9253 35.7434 15.9253 35.7434 15.9253 35.7434C15.9253 35.7434 15.9253 35.7434 15.9253 35.7434C15.9253 35.7434 15.9253 35.7434 15.9253 35.7434C15.9253 35.7434 15.9253 35.7434 15.9253 35.7434C15.9253 35.7434 15.9253 35.7434 15.9253 35.7434C15.9253 35.7434 15.9253 35.7434 15.9253 35.7434C15.9253 35.7434 15.9253 35.7434 15.9253 35.7434C15.9253 35.7434 15.9253 35.7434 15.9253 35.7434C15.9253 35.7434 15.9253 35.7434 15.9253 35.7434C15.9253 35.7434 15.9253 35.7434 15.9253 35.7434C15.9253 35.7434 15.9253 35.7434 15.9253 35.7434C15.9253 35.7434 15.9253 35.7434 15.9253 35.7434C15.9253 35.7434 15.9253 35.7434 15.9253 35.7434C15.9253 35.7434 15.9253 35.7434 15.9253 35.7434C15.9253 35.7434 15.9253 35.7434 15.9253 35.7434C15.9253 35.7434 15.9253 35.7434 15.9253 35.7434C15.9253 35.7434 15.9253 35.7434 15.9253 35.7434C15.9253 35.7434 15.9253 35.7434 15.9253 35.7434C15.9253 35.7434 15.9253 35.7434 15.9253 35.7434C15.9253 35.7434 15.9253 35.7434 15.9253 35.7434C15.9253 35.7434 15.9253 35.7434 15.9253 35.7434C15.9253 35.7434 15.9253 35.7434 15.9253 35.7434C15.9253 35.7434 15.9253 35.7434 15.9253 35.7434C15.9253 35.7434 15.9253 35.7434 15.9253 35.7434C15.9253 35.7434 15.9253 35.7434 15.9253 35.7434C15.9253 35.7434 15.9253 35.7434 15.9253 35.7434C15.9253 35.7434 15.9253 35.7434 15.9253 35.7434C15.9253 35.7434 15.9253 35.7434 15.9253 35.7434C15.9253 35.7434 15.9253 35.7434 15.9253 35.7434C15.9253 35.7434 15.9253 35.7434 15.9253 35.7434C15.9253 35.7434 15.9253 35.7434 15.9253 35.7434C15.9253 35.7434 15.9253 35.7434 15.9253 35.7434C15.9253 35.7434 15.9253 35.7434 15.9253 35.7434C15.9253 35.7434 15.9253 35.7434 15.9253 35.7434C15.9253 35.7434 15.9253 35.7434 15.9253 35.7434C15.9253 35.7434 15.9253 35.7434 15.9253 35.7434C15.9253 35.7434 15.9253 35.7434 15.9253 35.7434C15.9253 35.7434 15.9253 35.7434 15.9253 35.7434C15.9253 35.7434 15.9253 35.7434 15.9253 35.7434C15.9253 35.7434 15.9253 35.7434 15.9253 35.7434C15.9253 35.7434 15.9253 35.7434 15.9253 35.7434C15.9253 35.7434 15.9253 35.7434 15.9253 35.7434C15.9253 35.7434 15.9253 35.7434 15.9253 35.7434C15.9253 35.7434 15.9253 35.7434 15.9253 35.7434C15.9253 35.7434 15.9253 35.7434 15.9253 35.7434C15.9253 35.7434 15.9253 35.7434 15.9253 35.7434C15.9253 35.7434 15.9253 35.7434 15.9253 35.7434C15.9253 35.7434 15.9253 35.7434 15.9253 35.7434C15.9253 35.7434 15.9253 35.7434 15.9253 35.7434C15.9253 35.7434 15.9253 35.7434 15.9253 35.7434C15.9253 35.7434 15.9253 35.7434 15.9253 35.7434C15.9253 35.7434 15.9253 35.7434 15.9253 35.7434C15.9253 35.7434 15.9253 35.7434 15.9253 35.7434C15.9253 35.7434 15.9253 35.7434 15.9253 35.7434C15.9253 35.7434 15.9253 35.7434 15.9253 35.7434C15.9253 35.7434 15.9253 35.7434 15.9253 35.7434C15.9253 35.7434 15.9253 35.7434 15.9253 35.7434C15.9253 35.7434 15.9253 35.7434 15.9253 35.7434C15.9253 35.7434 15.9253 35.7434 15.9253 35.7434C15.9253 35.7434 15.9253 35.7434 15.9253 35.7434C15.9253 35.7434 15.9253 35.7434 15.9253 35.7434C15.9253 35.7434 15.9253 35.7434 15.9253 35.7434C15.9253 35.7434 15.9253 35.7434 15.9253 35.7434C15.9253 35.7434 15.9253 35.7434 15.9253 35.7434C15.9253 35.7434 15.9253 35.7434 15.9253 35.7434C15.9253 35.7434 15.9253 35.7434 15.9253 35.7434C15.9253 35.7434 15.9253 35.7434 15.9253 35.7434C15.9253 35.7434 15.9253 35.7434 15.9253 35.7434C15.9253 35.7434 15.9253 35.7434 15.9253 35.7434C15.9253 35.7434 15.9253 35.7434 15.9253 35.7434C15.9253 35.7434 15.9253 35.7434 15.9253 35.7434C15.9253 35.7434 15.9253 35.7434 15.9253 35.7434C15.9253 35.7434 15.9253 35.7434 15.9253 35.7434C15.9253 35.7434 15.9253 35.7434 15.9253 35.7434C15.9253 35.7434 15.9253 35.7434 15.9253 35.7434C15.9253 35.7434 15.9253 35.7434 15.9253 35.7434C15.9253 35.7434 15.9253 35.7434 15.9253 35.7434C15.9253 35.7434 15.9253 35.7434 15.9253 35.7434C15.9253 35.7434 15.9253 35.7434 15.9253 35.7434C15.9253 35.7434 15.9253 35.7434 15.9253 35.7434C15.9253 35.7434 15.9253 35.7434 15.9253 35.7434C15.9253 35.7434 15.9253 35.7434 15.9253 35.7434C15.9253 35.7434 15.9253 35.7434 15.9253 35.7434C15.9253 35.7434 15.9253 35.7434 15.9253 35.7434C15.9253 35.7434 15.9253 35.7434 15.9253 35.7434C15.9253 35.7434 15.9253 35.7434 15.9253 35.7434C15.9253 35.7434 15.9253 35.7434 15.9253 35.7434C15.9253 35.7434 15.9253 35.7434 15.9253 35.7434C15.9253 35.7434 15.9253 35.7434 15.9253 35.7434C15.9253 35.7434 15.9253 35.7434 15.9253 35.7434C15.9253 35.7434 15.9253 35.7434 15.9253 35.7434C15.9253 35.7434 15.9253 35.7434 15.9253 35.7434C15.9253 35.7434 15.9253 35.7434 15.9253 35.7434C15.9253 35.7434 15.9253 35.7434 15.9253 35.7434C15.9253 35.7434 15.9253 35.7434 15.9253 35.7434C15.9253 35.7434 15.9253 35.7434 15.9253 35.7434C15.9253 35.7434 15.9253 35.7434 15.9253 35.7434C15.9253 35.7434 15.9253 35.7434 15.9253 35.7434C15.9253 35.7434 15.9253 35.7434 15.9253 35.7434C15.9253 35.7434 15.9253 35.7434 15.9253 35.7434C15.9253 35.7434 15.9253 35.7434 15.9253 35.7434C15.9253 35.7434 15.9253 35.7434 15.9253 35.7434C15.9253 35.7434 15.9253 35.7434 15.9253 35.7434C15.9253 35.7434 15.9253 35.7434 15.9253 35.7434C15.9253 35.7434 15.9253 35.7434 15.9253 35.7434C15.9253 35.7434 15.9253 35.7434 15.9253 35.7434C15.9253 35.7434 15.9253 35.7434 15.9253 35.7434C15.9253 35.7434 15.9253 35.7434 15.9253 35.7434C15.9253 35.7434 15.9253 35.7434 15.9253 35.7434C15.9253 35.7434 15.9253 35.7434 15.9253 35.7434C15.9253 35.7434 15.9253 35.7434 15.9253 35.7434C15.9253 35.7434 15.9253 35.7434 15.9253 35.7434C15.9253 35.7434 15.9253 35.7434 15.9253 35.7434C15.9253 35.7434 15.9253 35.7434 15.9253 35.7434C15.9253 35.7434 15.9253 35.7434 15.9253 35.7434C15.9253 35.7434 15.9253 35.7434 15.9253 35.7434C15.9253 35.7434 15.9253 35.7434 15.9253 35.7434C15.9253 35.7434 15.9253 35.7434 15.9253 35.7434C15.9253 35.7434 15.9253 35.7434 15.9253 35.7434C15.9253 35.7434 15.9253 35.7434 15.9253 35.7434C15.9253 35.7434 15.9253 35.7434 15.9253 35.7434C15.9253 35.7434 15.9253 35.7434 15.9253 35.7434C15.9253 35.7434 15.9253 35.7434 15.9253 35.7434C15.9253 35.7434 15.9253 35.7434 15.9253 35.7434C15.9253 35.7434 15.9253 35.7434 15.9253 35.7434C15.9253 35.7434 15.9253 35.7434 15.9253 35.7434C15.9253 35.7434 15.9253 35.7434 15.9253 35.7434C15.9253 35.7434 15.9253 35.7434 15.9253 35.7434C15.9253 35.7434 15.9253 35.7434 15.9253 35.7434C15.9253 35.7434 15.9253 35.7434 15.9253 35.7434C15.9253 35.7434 15.9253 35.7434 15.9253 35.7434C15.9253 35.7434 15.9253 35.7434 15.9253 35.7434C15.9253 35.7434 15.9253 35.7434 15.9253 35.7434C15.9253 35.7434 15.9253 35.7434 15.9253 35.7434C15.9253 35.7434 15.9253 35.7434 15.9253 35.7434C15.9253 35.7434 15.9253 35.7434 15.9253 35.7434C15.9253 35.7434 15.9253 35.7434 15.9253 35.7434C15.9253 35.7434 15.9253 35.7434 15.9253 35.7434C15.9253 35.7434 15.9253 35.7434 15.9253 35.7434C15.9253 35.7434 15.9253 35.7434 15.9253 35.7434C15.9253 35.7434 15.9253 35.7434 15.9253 35.7434C15.9253 35.7434 15.9253 35.7434 15.9253 35.7434C15.9253 35.7434 15.9253 35.7434 15.9253 35.7434C15.9253 35.7434 15.9253 35.7434 15.9253 35.7434C15.9253 35.7434 15.9253 35.7434 15.9253 35.7434C15.9253 35.7434 15.9253 35.7434 15.9253 35.7434C15.9253 35.7434 15.9253 35.7434 15.9253 35.7434C15.9253 35.7434 15.9253 35.7434 15.9253 35.7434C15.9253 35.7434 15.9253 35.7434 15.9253 35.7434C15.9253 35.7434 15.9253 35.7434 15.9253 35.7434C15.9253 35.7434 15.9253 35.7434 15.9253 35.7434C15.9253 35.7434 15.9253 35.7434 15.9253 35.7434C15.9253 35.7434 15.9253 35.7434 15.9253 35.7434C15.9253 35.7434 15.9253 35.7434 15.9253 35.7434C15.9253 35.7434 15.9253 35.7434 15.9253 35.7434C15.9253 35.7434 15.9253 35.7434 15.9253 35.7434C15.9253 35.7434 15.9253 35.7434 15.9253 35.7434C15.9253 35.7434 15.9253 35.7434 15.9253 35.7434C15.9253 35.7434 15.9253 35.7434 15.9253 35.7434C15.9253 35.7434 15.9253 35.7434 15.9253 35.7434C15.9253 35.7434 15.9253 35.7434 15.9253 35.7434C15.9253 35.7434 15.9253 35.7434 15.9253 35.7434C15.9253 35.7434 15.9253 35.7434 15.9253 35.7434C15.9253 35.7434 15.9253 35.7434 15.9253 35.7434C15.9253 35.7434 15.9253 35.7434 15.9253 35.7434C15.9253 35.7434 15.9253 35.7434 15.9253 35.7434C15.9253 35.7434 15.9253 35.7434 15.9253 35.7434C15.9253 35.7434 15.9253 35.7434 15.9253 35.7434C15.9253 35.7434 15.9253 35.7434 15.9253 35.7434C15.9253 35.7434 15.9253 35.7434 15.9253 35.7434C15.9253 35.7434 15.9253 35.7434 15.9253 35.7434C15.9253 35.7434 15.9253 35.7434 15.9253 35.7434C15.9253 35.7434 15.9253 35.7434 15.9253 35.7434C15.9253 35.7434 15.9253 35.7434 15.9253 35.7434C15.9253 35.7434 15.9253 35.7434 15.9253 35.7434C15.9253 35.7434 15.9253 35.7434 15.9253 35.7434C15.9253 35.7434 15.9253 35.7434 15.9253 35.7434C15.9253 35.7434 15.9253 35.7434 15.9253 35.7434C15.9253 35.7434 15.9253 35.7434 15.9253 35.7434C15.9253 35.7434 15.9253 35.7434 15.9253 35.7434C15.9253 35.7434 15.9253 35.7434 15.9253 35.7434C15.9253 35.7434 15.9253 35.7434 15.9253 35.7434C15.9253 35.7434 15.9253 35.7434 15.9253 35.7434C15.9253 35.7434 15.9253 35.7434 15.9253 35.7434C15.9253 35.7434 15.9253 35.7434 15.9253 35.7434C15.9253 35.7434 15.9253 35.7434 15.9253 35.7434C15.9253 35.7434 15.9253 35.7434 15.9253 35.7434C15.9253 35.7434 15.9253 35.7434 15.9253 35.7434C15.9253 35.7434 15.9253 35.7434 15.9253 35.7434C15.9253 35.7434 15.9253 35.7434 15.9253 35.7434C15.9253 35.7434 15.9253 35.7434 15.9253 35.7434C15.9253 35.7434 15.9253 35.7434 15.9253 35.7434C15.9253 35.7434 15.9253 35.7434 15.9253 35.7434C15.9253 35.7434 15.9253 35.7434 15.9253 35.7434C15.9253 35.7434 15.9253 35.7434 15.9253 35.7434C15.9253 35.7434 15.9253 35.7434 15.9253 35.7434C15.9253 35.7434 15.9253 35.7434 15.9253 35.7434C15.9253 35.7434 15.9253 35.7434 15.9253 35.7434C15.9253 35.7434 15.9253 35.7434 15.9253 35.7434V33.7434ZM15.9253 33.7434C14.365 33.7434 13.1002 32.4786 13.1002 30.9183H11.1002C11.1002 33.5832 13.2604 35.7434 15.9253 35.7434V33.7434ZM13.1002 30.9183C13.1002 29.3581 14.365 28.0932 15.9253 28.0932V26.0932C13.2604 26.0932 11.1002 28.2535 11.1002 30.9183H13.1002ZM15.9253 28.0932C15.9253 28.0932 15.9253 28.0932 15.9253 28.0932C15.9253 28.0932 15.9253 28.0932 15.9253 28.0932V26.0932C15.9253 26.0932 15.9253 26.0932 15.9253 26.0932C15.9253 26.0932 15.9253 26.0932 15.9253 26.0932V28.0932Z" fill="#5B48D9" mask="url(#path-5-inside-2_516_882)"/>
<line x1="13.3056" y1="25.1806" x2="10.8251" y2="22.7001" stroke="#5B48D9" stroke-linecap="round" stroke-dasharray="2 4 6 8"/>
<line x1="13.271" y1="37.339" x2="10.2331" y2="39.093" stroke="#5B48D9" stroke-linecap="round" stroke-dasharray="2 4 6 8"/>
<line x1="11.0079" y1="31.4183" x2="7.49998" y2="31.4183" stroke="#5B48D9" stroke-linecap="round" stroke-dasharray="2 4 6 8"/>
<line x1="36.5" y1="25.5" x2="36.5" y2="37.5" stroke="black" stroke-linecap="round"/>
</svg>
