<svg width="64" height="64" viewBox="0 0 64 64" fill="none" xmlns="http://www.w3.org/2000/svg">
<rect width="64" height="64" rx="10" fill="#F4FBFF"/>
<rect x="0.25" y="0.25" width="63.5" height="63.5" rx="9.75" stroke="#5B48D9" stroke-opacity="0.25" stroke-width="0.5"/>
<line x1="5.19286" y1="36.2642" x2="16.9571" y2="36.2642" stroke="#5B48D9" stroke-width="0.385714" stroke-linecap="round"/>
<line x1="5.19286" y1="37.8071" x2="14.9828" y2="37.8071" stroke="#7A5FD9" stroke-width="0.385714" stroke-linecap="round"/>
<line x1="5.19286" y1="39.3499" x2="16.9571" y2="39.3499" stroke="#5B48D9" stroke-width="0.385714" stroke-linecap="round"/>
<line x1="5.19286" y1="40.8928" x2="14.9828" y2="40.8928" stroke="#7A5FD9" stroke-width="0.385714" stroke-linecap="round"/>
<line x1="5.19286" y1="42.4357" x2="16.9571" y2="42.4357" stroke="#5B48D9" stroke-width="0.385714" stroke-linecap="round"/>
<path d="M15.75 23.0286H6.25C5.55964 23.0286 5 23.5882 5 24.2786V33.7786C5 34.4689 5.55964 35.0286 6.25 35.0286H15.75C16.4404 35.0286 17 34.4689 17 33.7786V24.2786C17 23.5882 16.4404 23.0286 15.75 23.0286Z" fill="white"/>
<path d="M6.25 23.1286H15.75C16.3851 23.1286 16.9 23.6434 16.9 24.2786V33.7786C16.9 34.4137 16.3851 34.9286 15.75 34.9286H6.25C5.61487 34.9286 5.1 34.4137 5.1 33.7786V24.2786C5.1 23.6434 5.61487 23.1286 6.25 23.1286Z" stroke="#5B48D9" stroke-opacity="0.25" stroke-width="0.2"/>
<path d="M8.42858 28.2786L5 31.6274V33.7786C5 34.4689 5.55965 35.0286 6.25 35.0286H15.75C16.4402 35.0286 17 34.4689 17 33.7786V33.2495L14.5357 30.9995L12.7143 32.4646L8.42858 28.2786Z" fill="#5B48D9"/>
<path d="M12.875 30.7786C13.3582 30.7786 13.75 30.3868 13.75 29.9036C13.75 29.4203 13.3582 29.0286 12.875 29.0286C12.3918 29.0286 12 29.4203 12 29.9036C12 30.3868 12.3918 30.7786 12.875 30.7786Z" fill="#7A5FD9"/>
<line x1="19.1429" y1="36.2642" x2="30.9072" y2="36.2642" stroke="#5B48D9" stroke-width="0.385714" stroke-linecap="round"/>
<line x1="19.1429" y1="37.8071" x2="28.9328" y2="37.8071" stroke="#7A5FD9" stroke-width="0.385714" stroke-linecap="round"/>
<line x1="19.1429" y1="39.3499" x2="30.9072" y2="39.3499" stroke="#5B48D9" stroke-width="0.385714" stroke-linecap="round"/>
<line x1="19.1429" y1="40.8928" x2="28.9328" y2="40.8928" stroke="#7A5FD9" stroke-width="0.385714" stroke-linecap="round"/>
<line x1="19.1429" y1="42.4357" x2="30.9072" y2="42.4357" stroke="#5B48D9" stroke-width="0.385714" stroke-linecap="round"/>
<path d="M29.7 23.0286H20.2C19.5097 23.0286 18.95 23.5882 18.95 24.2786V33.7786C18.95 34.4689 19.5097 35.0286 20.2 35.0286H29.7C30.3904 35.0286 30.95 34.4689 30.95 33.7786V24.2786C30.95 23.5882 30.3904 23.0286 29.7 23.0286Z" fill="white"/>
<path d="M20.2 23.1286H29.7C30.3351 23.1286 30.85 23.6434 30.85 24.2786V33.7786C30.85 34.4137 30.3351 34.9286 29.7 34.9286H20.2C19.5649 34.9286 19.05 34.4137 19.05 33.7786V24.2786C19.05 23.6434 19.5649 23.1286 20.2 23.1286Z" stroke="#5B48D9" stroke-opacity="0.25" stroke-width="0.2"/>
<path d="M22.3786 28.2786L18.95 31.6274V33.7786C18.95 34.4689 19.5097 35.0286 20.2 35.0286H29.7C30.3903 35.0286 30.95 34.4689 30.95 33.7786V33.2495L28.4858 30.9995L26.6643 32.4646L22.3786 28.2786Z" fill="#5B48D9"/>
<path d="M26.825 30.7786C27.3082 30.7786 27.7 30.3868 27.7 29.9036C27.7 29.4203 27.3082 29.0286 26.825 29.0286C26.3417 29.0286 25.95 29.4203 25.95 29.9036C25.95 30.3868 26.3417 30.7786 26.825 30.7786Z" fill="#7A5FD9"/>
<line x1="33.0929" y1="36.2642" x2="44.8572" y2="36.2642" stroke="#5B48D9" stroke-width="0.385714" stroke-linecap="round"/>
<line x1="33.0929" y1="37.8071" x2="42.8828" y2="37.8071" stroke="#7A5FD9" stroke-width="0.385714" stroke-linecap="round"/>
<line x1="33.0929" y1="39.3499" x2="44.8572" y2="39.3499" stroke="#5B48D9" stroke-width="0.385714" stroke-linecap="round"/>
<line x1="33.0929" y1="40.8928" x2="42.8828" y2="40.8928" stroke="#7A5FD9" stroke-width="0.385714" stroke-linecap="round"/>
<line x1="33.0929" y1="42.4357" x2="44.8572" y2="42.4357" stroke="#5B48D9" stroke-width="0.385714" stroke-linecap="round"/>
<path d="M43.65 23.0286H34.15C33.4597 23.0286 32.9 23.5882 32.9 24.2786V33.7786C32.9 34.4689 33.4597 35.0286 34.15 35.0286H43.65C44.3404 35.0286 44.9 34.4689 44.9 33.7786V24.2786C44.9 23.5882 44.3404 23.0286 43.65 23.0286Z" fill="white"/>
<path d="M34.15 23.1286H43.65C44.2852 23.1286 44.8 23.6434 44.8 24.2786V33.7786C44.8 34.4137 44.2852 34.9286 43.65 34.9286H34.15C33.5149 34.9286 33 34.4137 33 33.7786V24.2786C33 23.6434 33.5149 23.1286 34.15 23.1286Z" stroke="#5B48D9" stroke-opacity="0.25" stroke-width="0.2"/>
<path d="M36.3286 28.2786L32.9 31.6274V33.7786C32.9 34.4689 33.4597 35.0286 34.15 35.0286H43.65C44.3403 35.0286 44.9 34.4689 44.9 33.7786V33.2495L42.4358 30.9995L40.6143 32.4646L36.3286 28.2786Z" fill="#5B48D9"/>
<path d="M40.775 30.7786C41.2583 30.7786 41.65 30.3868 41.65 29.9036C41.65 29.4203 41.2583 29.0286 40.775 29.0286C40.2918 29.0286 39.9 29.4203 39.9 29.9036C39.9 30.3868 40.2918 30.7786 40.775 30.7786Z" fill="#7A5FD9"/>
<line x1="47.0428" y1="36.2642" x2="58.8071" y2="36.2642" stroke="#5B48D9" stroke-width="0.385714" stroke-linecap="round"/>
<line x1="47.0428" y1="37.8071" x2="56.8327" y2="37.8071" stroke="#7A5FD9" stroke-width="0.385714" stroke-linecap="round"/>
<line x1="47.0428" y1="39.3499" x2="58.8071" y2="39.3499" stroke="#5B48D9" stroke-width="0.385714" stroke-linecap="round"/>
<line x1="47.0428" y1="40.8928" x2="56.8327" y2="40.8928" stroke="#7A5FD9" stroke-width="0.385714" stroke-linecap="round"/>
<line x1="47.0428" y1="42.4357" x2="58.8071" y2="42.4357" stroke="#5B48D9" stroke-width="0.385714" stroke-linecap="round"/>
<path d="M57.6 23.0286H48.1C47.4096 23.0286 46.85 23.5882 46.85 24.2786V33.7786C46.85 34.4689 47.4096 35.0286 48.1 35.0286H57.6C58.2903 35.0286 58.85 34.4689 58.85 33.7786V24.2786C58.85 23.5882 58.2903 23.0286 57.6 23.0286Z" fill="white"/>
<path d="M48.1 23.1286H57.6C58.2351 23.1286 58.75 23.6434 58.75 24.2786V33.7786C58.75 34.4137 58.2351 34.9286 57.6 34.9286H48.1C47.4648 34.9286 46.95 34.4137 46.95 33.7786V24.2786C46.95 23.6434 47.4648 23.1286 48.1 23.1286Z" stroke="#5B48D9" stroke-opacity="0.25" stroke-width="0.2"/>
<path d="M50.2786 28.2786L46.85 31.6274V33.7786C46.85 34.4689 47.4096 35.0286 48.1 35.0286H57.6C58.2902 35.0286 58.85 34.4689 58.85 33.7786V33.2495L56.3857 30.9995L54.5643 32.4646L50.2786 28.2786Z" fill="#5B48D9"/>
<path d="M54.725 30.7786C55.2082 30.7786 55.6 30.3868 55.6 29.9036C55.6 29.4203 55.2082 29.0286 54.725 29.0286C54.2417 29.0286 53.85 29.4203 53.85 29.9036C53.85 30.3868 54.2417 30.7786 54.725 30.7786Z" fill="#7A5FD9"/>
<line x1="5" y1="19" x2="20" y2="19" stroke="#5B48D9" stroke-width="2" stroke-linecap="round"/>
<line x1="50.25" y1="20.75" x2="56.75" y2="20.75" stroke="#7A5FD9" stroke-width="0.5" stroke-linecap="round"/>
<circle cx="58.5" cy="20.5" r="0.5" fill="#5B48D9"/>
</svg>
