<svg width="64" height="64" viewBox="0 0 64 64" fill="none" xmlns="http://www.w3.org/2000/svg">
<path d="M64 0H0V64H64V0Z" fill="#F4FBFF"/>
<path d="M25.8125 36.215L21.8525 25.3925C21.6575 24.9125 21.455 24.3425 21.245 23.6825C21.035 23.0225 20.825 22.31 20.615 21.545C20.42 22.31 20.2175 23.03 20.0075 23.705C19.7975 24.365 19.595 24.9425 19.4 25.4375L15.4625 36.215H25.8125ZM36.5 48.5H31.82C31.295 48.5 30.8675 48.3725 30.5375 48.1175C30.2075 47.8475 29.96 47.5175 29.795 47.1275L27.365 40.49H13.8875L11.4575 47.1275C11.3375 47.4725 11.105 47.7875 10.76 48.0725C10.415 48.3575 9.9875 48.5 9.4775 48.5H4.7525L17.555 15.965H23.72L36.5 48.5ZM51.185 38.645C49.5801 38.72 48.2301 38.8625 47.1351 39.0725C46.0401 39.2675 45.1626 39.5225 44.5026 39.8375C43.8426 40.1525 43.3701 40.52 43.0851 40.94C42.8001 41.36 42.6576 41.8175 42.6576 42.3125C42.6576 43.2875 42.9426 43.985 43.5126 44.405C44.0976 44.825 44.8551 45.035 45.7851 45.035C46.9251 45.035 47.9076 44.8325 48.7326 44.4275C49.5726 44.0075 50.39 43.3775 51.185 42.5375V38.645ZM38.4501 28.6325C41.1051 26.2025 44.3001 24.9875 48.0351 24.9875C49.3851 24.9875 50.5925 25.2125 51.6575 25.6625C52.7225 26.0975 53.6225 26.7125 54.3575 27.5075C55.0925 28.2875 55.6475 29.225 56.0225 30.32C56.4125 31.415 56.6075 32.615 56.6075 33.92V48.5H54.0875C53.5625 48.5 53.1575 48.425 52.8725 48.275C52.5875 48.11 52.3625 47.7875 52.1975 47.3075L51.7025 45.6425C51.1175 46.1675 50.5475 46.6325 49.9926 47.0375C49.4376 47.4275 48.8601 47.7575 48.2601 48.0275C47.6601 48.2975 47.0151 48.5 46.3251 48.635C45.6501 48.785 44.9001 48.86 44.0751 48.86C43.1001 48.86 42.2001 48.7325 41.3751 48.4775C40.5501 48.2075 39.8376 47.81 39.2376 47.285C38.6376 46.76 38.1726 46.1075 37.8426 45.3275C37.5126 44.5475 37.3476 43.64 37.3476 42.605C37.3476 42.02 37.4451 41.4425 37.6401 40.8725C37.8351 40.2875 38.1501 39.7325 38.5851 39.2075C39.0351 38.6825 39.6126 38.1875 40.3176 37.7225C41.0226 37.2575 41.8851 36.8525 42.9051 36.5075C43.9401 36.1625 45.1401 35.885 46.5051 35.675C47.8701 35.45 49.4301 35.315 51.185 35.27V33.92C51.185 32.375 50.855 31.235 50.195 30.5C49.5351 29.75 48.5826 29.375 47.3376 29.375C46.4376 29.375 45.6876 29.48 45.0876 29.69C44.5026 29.9 43.9851 30.14 43.5351 30.41C43.0851 30.665 42.6726 30.8975 42.2976 31.1075C41.9376 31.3175 41.5326 31.4225 41.0826 31.4225C40.6926 31.4225 40.3626 31.325 40.0926 31.13C39.8226 30.92 39.6051 30.68 39.4401 30.41L38.4501 28.6325Z" fill="#5B48D9"/>
<path d="M25.8125 36.215V36.715H26.5278L26.282 36.0432L25.8125 36.215ZM21.8525 25.3925L22.322 25.2207L22.319 25.2125L22.3157 25.2043L21.8525 25.3925ZM21.245 23.6825L21.7214 23.5309L21.245 23.6825ZM20.615 21.545L21.0971 21.4127L20.5971 19.591L20.1305 21.4215L20.615 21.545ZM20.0075 23.705L20.4839 23.8566L20.4849 23.8536L20.0075 23.705ZM19.4 25.4375L18.9348 25.2543L18.9325 25.2601L18.9303 25.2659L19.4 25.4375ZM15.4625 36.215L14.9928 36.0434L14.7475 36.715H15.4625V36.215ZM36.5 48.5V49H37.2336L36.9654 48.3172L36.5 48.5ZM30.5375 48.1175L30.2209 48.5045L30.2262 48.5089L30.2318 48.5132L30.5375 48.1175ZM29.795 47.1275L29.3255 47.2994L29.3297 47.311L29.3345 47.3223L29.795 47.1275ZM27.365 40.49L27.8345 40.3181L27.7144 39.99H27.365V40.49ZM13.8875 40.49V39.99H13.5381L13.418 40.3181L13.8875 40.49ZM11.4575 47.1275L10.988 46.9556L10.9866 46.9594L10.9852 46.9633L11.4575 47.1275ZM4.7525 48.5L4.28722 48.3169L4.01843 49H4.7525V48.5ZM17.555 15.965V15.465H17.2144L17.0897 15.7819L17.555 15.965ZM23.72 15.965L24.1854 15.7822L24.0608 15.465H23.72V15.965ZM26.282 36.0432L22.322 25.2207L21.3829 25.5643L25.3429 36.3868L26.282 36.0432ZM22.3157 25.2043C22.1269 24.7396 21.9287 24.1824 21.7214 23.5309L20.7685 23.8341C20.9812 24.5027 21.1881 25.0855 21.3892 25.5807L22.3157 25.2043ZM21.7214 23.5309C21.5137 22.8781 21.3056 22.1721 21.0971 21.4127L20.1328 21.6774C20.3443 22.4479 20.5562 23.1669 20.7685 23.8341L21.7214 23.5309ZM20.1305 21.4215C19.9374 22.1791 19.7372 22.8907 19.53 23.5565L20.4849 23.8536C20.6978 23.1694 20.9026 22.441 21.0995 21.6685L20.1305 21.4215ZM19.531 23.5534C19.3235 24.2057 19.1247 24.7722 18.9348 25.2543L19.8652 25.6208C20.0653 25.1128 20.2715 24.5243 20.4839 23.8566L19.531 23.5534ZM18.9303 25.2659L14.9928 36.0434L15.9321 36.3866L19.8696 25.6091L18.9303 25.2659ZM15.4625 36.715H25.8125V35.715H15.4625V36.715ZM36.5 48H31.82V49H36.5V48ZM31.82 48C31.3765 48 31.0651 47.8934 30.8432 47.7219L30.2318 48.5132C30.6698 48.8517 31.2134 49 31.82 49V48ZM30.8541 47.7305C30.5865 47.5116 30.3886 47.2474 30.2555 46.9327L29.3345 47.3223C29.5314 47.7877 29.8285 48.1835 30.2209 48.5045L30.8541 47.7305ZM30.2645 46.9556L27.8345 40.3181L26.8955 40.6619L29.3255 47.2994L30.2645 46.9556ZM27.365 39.99H13.8875V40.99H27.365V39.99ZM13.418 40.3181L10.988 46.9556L11.927 47.2994L14.357 40.6619L13.418 40.3181ZM10.9852 46.9633C10.9014 47.2043 10.7319 47.4472 10.4415 47.687L11.0784 48.458C11.4781 48.1278 11.7736 47.7408 11.9297 47.2918L10.9852 46.9633ZM10.4415 47.687C10.1985 47.8878 9.88845 48 9.4775 48V49C10.0865 49 10.6314 48.8273 11.0784 48.458L10.4415 47.687ZM9.4775 48H4.7525V49H9.4775V48ZM5.21775 48.6831L18.0202 16.1481L17.0897 15.7819L4.28722 48.3169L5.21775 48.6831ZM17.555 16.465H23.72V15.465H17.555V16.465ZM23.2546 16.1478L36.0346 48.6828L36.9654 48.3172L24.1854 15.7822L23.2546 16.1478ZM51.185 38.645H51.685V38.1211L51.162 38.1456L51.185 38.645ZM47.1351 39.0725L47.2228 39.5648L47.2293 39.5636L47.1351 39.0725ZM43.5126 44.405L43.216 44.8076L43.221 44.8112L43.5126 44.405ZM48.7326 44.4275L48.9529 44.8764L48.9562 44.8747L48.7326 44.4275ZM51.185 42.5375L51.5485 42.8812L51.685 42.7366V42.5375H51.185ZM38.4501 28.6325L38.1125 28.2637L37.821 28.5305L38.0133 28.8758L38.4501 28.6325ZM51.6575 25.6625L51.463 26.1231L51.4685 26.1254L51.6575 25.6625ZM54.3575 27.5075L53.9905 27.847L53.9935 27.8504L54.3575 27.5075ZM56.0225 30.32L55.5495 30.482L55.5515 30.4878L56.0225 30.32ZM56.6075 48.5V49H57.1075V48.5H56.6075ZM52.8725 48.275L52.622 48.7077L52.631 48.7128L52.6395 48.7175L52.8725 48.275ZM52.1975 47.3075L51.7185 47.45L51.7215 47.4601L51.725 47.4701L52.1975 47.3075ZM51.7025 45.6425L52.182 45.5L51.9565 44.7427L51.3685 45.2704L51.7025 45.6425ZM49.9926 47.0375L50.28 47.4466L50.2835 47.4441L50.2875 47.4414L49.9926 47.0375ZM48.2601 48.0275L48.4653 48.4835L48.2601 48.0275ZM46.3251 48.635L46.2291 48.1443L46.2228 48.1456L46.2166 48.1469L46.3251 48.635ZM41.3751 48.4775L41.2196 48.9527L41.2235 48.954L41.2274 48.9552L41.3751 48.4775ZM39.2376 47.285L38.9083 47.6613L39.2376 47.285ZM37.6401 40.8725L38.1132 41.0344L38.1144 41.0306L37.6401 40.8725ZM38.5851 39.2075L38.2055 38.8821L38.2027 38.8853L38.2001 38.8885L38.5851 39.2075ZM42.9051 36.5075L42.747 36.0332L42.7449 36.0339L42.9051 36.5075ZM46.5051 35.675L46.5811 36.1692L46.5864 36.1684L46.5051 35.675ZM51.185 35.27L51.198 35.7699L51.685 35.7574V35.27H51.185ZM50.195 30.5L49.8197 30.8304L49.8231 30.8341L50.195 30.5ZM45.0876 29.69L44.9224 29.2181L44.9187 29.2194L45.0876 29.69ZM43.5351 30.41L43.7816 30.845L43.787 30.842L43.7923 30.8388L43.5351 30.41ZM42.2976 31.1075L42.0533 30.6713L42.0495 30.6734L42.0457 30.6756L42.2976 31.1075ZM40.0926 31.13L39.7856 31.5247L39.7926 31.5302L39.7998 31.5354L40.0926 31.13ZM39.4401 30.41L39.0033 30.6533L39.0082 30.6621L39.0135 30.6707L39.4401 30.41ZM51.162 38.1456C49.5424 38.2212 48.167 38.3655 47.0409 38.5815L47.2293 39.5636C48.2932 39.3595 49.6178 39.2188 51.2085 39.1445L51.162 38.1456ZM47.0474 38.5803C45.9286 38.7795 45.003 39.0447 44.2872 39.3863L44.718 40.2888C45.3222 40.0004 46.1515 39.7555 47.2228 39.5648L47.0474 38.5803ZM44.2872 39.3863C43.5804 39.7236 43.0234 40.1404 42.6714 40.6593L43.4988 41.2208C43.7168 40.8996 44.1048 40.5814 44.718 40.2888L44.2872 39.3863ZM42.6714 40.6593C42.3317 41.1599 42.1576 41.7147 42.1576 42.3125H43.1576C43.1576 41.9203 43.2685 41.5602 43.4988 41.2208L42.6714 40.6593ZM42.1576 42.3125C42.1576 43.382 42.4739 44.2607 43.216 44.8076L43.8092 44.0025C43.4113 43.7093 43.1576 43.1931 43.1576 42.3125H42.1576ZM43.221 44.8112C43.9128 45.3078 44.7809 45.535 45.7851 45.535V44.535C44.9293 44.535 44.2824 44.3422 43.8042 43.9989L43.221 44.8112ZM45.7851 45.535C46.9835 45.535 48.0449 45.3221 48.9529 44.8764L48.5123 43.9787C47.7703 44.3429 46.8667 44.535 45.7851 44.535V45.535ZM48.9562 44.8747C49.8589 44.4234 50.722 43.7541 51.5485 42.8812L50.822 42.1938C50.058 43.0009 49.2863 43.5917 48.509 43.9803L48.9562 44.8747ZM51.685 42.5375V38.645H50.685V42.5375H51.685ZM38.7877 29.0014C41.3467 26.6592 44.4199 25.4875 48.0351 25.4875V24.4875C44.1803 24.4875 40.8635 25.7459 38.1125 28.2637L38.7877 29.0014ZM48.0351 25.4875C49.3293 25.4875 50.469 25.7031 51.463 26.1231L51.852 25.2019C50.716 24.7219 49.4409 24.4875 48.0351 24.4875V25.4875ZM51.4685 26.1254C52.47 26.5345 53.308 27.1089 53.9905 27.847L54.725 27.1681C53.937 26.3161 52.975 25.6605 51.8465 25.1996L51.4685 26.1254ZM53.9935 27.8504C54.676 28.5745 55.196 29.4489 55.5495 30.482L56.4955 30.158C56.0995 29.0011 55.509 28.0005 54.7215 27.1646L53.9935 27.8504ZM55.5515 30.4878C55.92 31.5228 56.1075 32.6652 56.1075 33.92H57.1075C57.1075 32.5648 56.905 31.3073 56.4935 30.1523L55.5515 30.4878ZM56.1075 33.92V48.5H57.1075V33.92H56.1075ZM56.6075 48H54.0875V49H56.6075V48ZM54.0875 48C53.5985 48 53.287 47.9281 53.1055 47.8326L52.6395 48.7175C53.028 48.9219 53.527 49 54.0875 49V48ZM53.123 47.8423C52.986 47.7629 52.8165 47.5701 52.6705 47.145L51.725 47.4701C51.9085 48.0049 52.189 48.4571 52.622 48.7077L53.123 47.8423ZM52.677 47.165L52.182 45.5L51.2235 45.785L51.7185 47.45L52.677 47.165ZM51.3685 45.2704C50.7945 45.7857 50.2375 46.2398 49.6979 46.6336L50.2875 47.4414C50.8575 47.0252 51.441 46.5493 52.0365 46.0146L51.3685 45.2704ZM49.7051 46.6284C49.1752 47.0008 48.6252 47.3149 48.0549 47.5716L48.4653 48.4835C49.095 48.2001 49.7 47.8542 50.28 47.4466L49.7051 46.6284ZM48.0549 47.5716C47.4922 47.8248 46.884 48.0162 46.2291 48.1443L46.4211 49.1257C47.1461 48.9839 47.828 48.7702 48.4653 48.4835L48.0549 47.5716ZM46.2166 48.1469C45.5833 48.2877 44.8704 48.36 44.0751 48.36V49.36C44.9298 49.36 45.7169 49.2824 46.4336 49.1231L46.2166 48.1469ZM44.0751 48.36C43.1438 48.36 42.2942 48.2383 41.5227 47.9998L41.2274 48.9552C42.106 49.2268 43.0564 49.36 44.0751 49.36V48.36ZM41.5306 48.0023C40.7639 47.7514 40.1118 47.3856 39.5668 46.9087L38.9083 47.6613C39.5633 48.2344 40.3363 48.6637 41.2196 48.9527L41.5306 48.0023ZM39.5668 46.9087C39.0273 46.4366 38.6055 45.8475 38.3031 45.1327L37.3821 45.5223C37.7397 46.3675 38.2479 47.0834 38.9083 47.6613L39.5668 46.9087ZM38.3031 45.1327C38.0043 44.4264 37.8476 43.5876 37.8476 42.605H36.8476C36.8476 43.6925 37.0209 44.6686 37.3821 45.5223L38.3031 45.1327ZM37.8476 42.605C37.8476 42.0767 37.9355 41.5538 38.1132 41.0344L37.167 40.7107C36.9547 41.3312 36.8476 41.9633 36.8476 42.605H37.8476ZM38.1144 41.0306C38.2879 40.5102 38.5704 40.0089 38.9701 39.5265L38.2001 38.8885C37.7298 39.4561 37.3823 40.0648 37.1658 40.7144L38.1144 41.0306ZM38.9647 39.5329C39.3786 39.0501 39.9185 38.5847 40.5929 38.1399L40.0423 37.3051C39.3067 37.7903 38.6916 38.315 38.2055 38.8821L38.9647 39.5329ZM40.5929 38.1399C41.2539 37.7039 42.0754 37.316 43.0653 36.9812L42.7449 36.0339C41.6948 36.3891 40.7913 36.8111 40.0423 37.3051L40.5929 38.1399ZM43.0632 36.9819C44.0655 36.6478 45.237 36.376 46.5811 36.1692L46.4291 35.1808C45.0432 35.3941 43.8147 35.6773 42.747 36.0332L43.0632 36.9819ZM46.5864 36.1684C47.9237 35.9479 49.4601 35.8144 51.198 35.7699L51.1725 34.7702C49.4001 34.8156 47.8165 34.9521 46.4238 35.1817L46.5864 36.1684ZM51.685 35.27V33.92H50.685V35.27H51.685ZM51.685 33.92C51.685 32.3182 51.345 31.0324 50.567 30.166L49.8231 30.8341C50.365 31.4376 50.685 32.4318 50.685 33.92H51.685ZM50.5705 30.1697C49.7929 29.2862 48.6881 28.875 47.3376 28.875V29.875C48.4771 29.875 49.2773 30.2139 49.8197 30.8303L50.5705 30.1697ZM47.3376 28.875C46.4028 28.875 45.5926 28.9835 44.9224 29.2181L45.2528 30.162C45.7826 29.9765 46.4724 29.875 47.3376 29.875V28.875ZM44.9187 29.2194C44.3084 29.4385 43.7604 29.6917 43.2778 29.9813L43.7923 30.8388C44.2098 30.5883 44.6968 30.3615 45.2565 30.1606L44.9187 29.2194ZM43.2886 29.975C42.8392 30.2297 42.4274 30.4618 42.0533 30.6713L42.5419 31.5438C42.9178 31.3333 43.331 31.1004 43.7816 30.845L43.2886 29.975ZM42.0457 30.6756C41.7682 30.8375 41.4514 30.9225 41.0826 30.9225V31.9225C41.6138 31.9225 42.107 31.7976 42.5495 31.5394L42.0457 30.6756ZM41.0826 30.9225C40.7792 30.9225 40.5562 30.8481 40.3853 30.7247L39.7998 31.5354C40.1689 31.8019 40.606 31.9225 41.0826 31.9225V30.9225ZM40.3996 30.7353C40.1733 30.5594 39.9978 30.3638 39.8667 30.1493L39.0135 30.6707C39.2124 30.9963 39.4718 31.2807 39.7856 31.5247L40.3996 30.7353ZM39.8769 30.1667L38.8869 28.3892L38.0133 28.8758L39.0033 30.6533L39.8769 30.1667Z" fill="#5B48D9"/>
<rect x="0.25" y="0.25" width="63.5" height="63.5" rx="9.75" stroke="#5B48D9" stroke-opacity="0.22" stroke-width="0.5"/>
</svg>
