<svg width="64" height="64" viewBox="0 0 64 64" fill="none" xmlns="http://www.w3.org/2000/svg">
<path d="M54 8H17.5C11.9772 8 7.5 12.4772 7.5 18V54C7.5 59.5228 11.9772 64 17.5 64H54C59.5228 64 64 59.5228 64 54V18C64 12.4772 59.5228 8 54 8Z" fill="#D0D0EA"/>
<path d="M46 0H10C4.47715 0 0 4.47715 0 10V46C0 51.5228 4.47715 56 10 56H46C51.5228 56 56 51.5228 56 46V10C56 4.47715 51.5228 0 46 0Z" fill="#F4FBFF"/>
<path d="M14.2323 25.7677L0.732235 39.2677C0.263392 39.7366 0 40.3725 0 41.0355V46.25C0 51.773 4.47715 56.25 10 56.25H48.3321C52.567 56.25 56 52.817 56 48.5821C56 48.0513 55.78 47.5442 55.392 47.1817L46.1028 38.4983C45.1858 37.6411 43.7753 37.5968 42.8064 38.3948L37.7521 42.5571C36.7583 43.3755 35.3054 43.3054 34.3951 42.395L17.7677 25.7677C16.7914 24.7914 15.2086 24.7914 14.2323 25.7677Z" fill="#5B48D9"/>
<path d="M36 24C38.2091 24 40 22.2091 40 20C40 17.7909 38.2091 16 36 16C33.7909 16 32 17.7909 32 20C32 22.2091 33.7909 24 36 24Z" fill="#7A5FD9"/>
<rect x="0.25" y="0.25" width="63.5" height="63.5" rx="9.75" stroke="#5B48D9" stroke-opacity="0.22" stroke-width="0.5"/>
</svg>
