<svg width="64" height="64" viewBox="0 0 64 64" fill="none" xmlns="http://www.w3.org/2000/svg">
<path d="M54 0H10C4.47715 0 0 4.47715 0 10V54C0 59.5228 4.47715 64 10 64H54C59.5228 64 64 59.5228 64 54V10C64 4.47715 59.5228 0 54 0Z" fill="#F4FBFF"/>
<path d="M28.5 6H9.5C8.11929 6 7 7.11929 7 8.5V27.5C7 28.8807 8.11929 30 9.5 30H28.5C29.8807 30 31 28.8807 31 27.5V8.5C31 7.11929 29.8807 6 28.5 6Z" fill="white"/>
<path d="M13.8572 16.5L7 23.1977V27.5C7 28.8807 8.1193 30 9.5 30H28.5C29.8807 30 31 28.8807 31 27.5V26.4419L26.0714 21.9419L22.4286 24.8721L13.8572 16.5Z" fill="#5B48D9"/>
<path d="M22.75 21.5C23.7165 21.5 24.5 20.7165 24.5 19.75C24.5 18.7835 23.7165 18 22.75 18C21.7835 18 21 18.7835 21 19.75C21 20.7165 21.7835 21.5 22.75 21.5Z" fill="#7A5FD9"/>
<path d="M54.5 6H35.5C34.1193 6 33 7.11929 33 8.5V27.5C33 28.8807 34.1193 30 35.5 30H54.5C55.8807 30 57 28.8807 57 27.5V8.5C57 7.11929 55.8807 6 54.5 6Z" fill="white"/>
<path d="M39.8572 16.5L33 23.1977V27.5C33 28.8807 34.1193 30 35.5 30H54.5C55.8805 30 57 28.8807 57 27.5V26.4419L52.0715 21.9419L48.4286 24.8721L39.8572 16.5Z" fill="#5B48D9"/>
<path d="M48.75 21.5C49.7165 21.5 50.5 20.7165 50.5 19.75C50.5 18.7835 49.7165 18 48.75 18C47.7835 18 47 18.7835 47 19.75C47 20.7165 47.7835 21.5 48.75 21.5Z" fill="#7A5FD9"/>
<path d="M28.5 32H9.5C8.11929 32 7 33.1193 7 34.5V53.5C7 54.8807 8.11929 56 9.5 56H28.5C29.8807 56 31 54.8807 31 53.5V34.5C31 33.1193 29.8807 32 28.5 32Z" fill="white"/>
<path d="M13.8572 42.5L7 49.1977V53.5C7 54.8805 8.1193 56 9.5 56H28.5C29.8807 56 31 54.8805 31 53.5V52.442L26.0714 47.9418L22.4286 50.872L13.8572 42.5Z" fill="#5B48D9"/>
<path d="M22.75 47.5C23.7165 47.5 24.5 46.7165 24.5 45.75C24.5 44.7835 23.7165 44 22.75 44C21.7835 44 21 44.7835 21 45.75C21 46.7165 21.7835 47.5 22.75 47.5Z" fill="#7A5FD9"/>
<path d="M54.5 32H35.5C34.1193 32 33 33.1193 33 34.5V53.5C33 54.8807 34.1193 56 35.5 56H54.5C55.8807 56 57 54.8807 57 53.5V34.5C57 33.1193 55.8807 32 54.5 32Z" fill="white"/>
<path d="M39.8572 42.5L33 49.1977V53.5C33 54.8805 34.1193 56 35.5 56H54.5C55.8805 56 57 54.8805 57 53.5V52.442L52.0715 47.9418L48.4286 50.872L39.8572 42.5Z" fill="#5B48D9"/>
<path d="M48.75 47.5C49.7165 47.5 50.5 46.7165 50.5 45.75C50.5 44.7835 49.7165 44 48.75 44C47.7835 44 47 44.7835 47 45.75C47 46.7165 47.7835 47.5 48.75 47.5Z" fill="#7A5FD9"/>
<rect x="0.25" y="0.25" width="63.5" height="63.5" rx="9.75" stroke="#5B48D9" stroke-opacity="0.22" stroke-width="0.5"/>
</svg>
