<svg width="64" height="64" viewBox="0 0 64 64" fill="none" xmlns="http://www.w3.org/2000/svg">
<g clip-path="url(#clip0_515_727)">
<path d="M54 0H10C4.47715 0 0 4.47715 0 10V54C0 59.5228 4.47715 64 10 64H54C59.5228 64 64 59.5228 64 54V10C64 4.47715 59.5228 0 54 0Z" fill="#F4FBFF"/>
<path d="M14.2323 25.7677L0.732235 39.2677C0.263392 39.7366 0 40.3725 0 41.0355V54C0 59.523 4.47716 64 10 64H54C59.523 64 64 59.523 64 54V49.2045C64 48.4433 63.6535 47.7237 63.058 47.2494L49.4907 36.4379C48.6103 35.7363 47.3695 35.7098 46.4598 36.3731L37.7282 42.7398C36.7333 43.4653 35.3582 43.3582 34.4875 42.4875L17.7677 25.7677C16.7914 24.7914 15.2086 24.7914 14.2323 25.7677Z" fill="#5B48D9"/>
<path d="M36 24C38.2091 24 40 22.2091 40 20C40 17.7909 38.2091 16 36 16C33.7909 16 32 17.7909 32 20C32 22.2091 33.7909 24 36 24Z" fill="#7A5FD9"/>
</g>
<rect x="0.25" y="0.25" width="63.5" height="63.5" rx="9.75" stroke="#5B48D9" stroke-opacity="0.22" stroke-width="0.5"/>
<defs>
<clipPath id="clip0_515_727">
<rect width="64" height="64" rx="10" fill="white"/>
</clipPath>
</defs>
</svg>
