<svg width="64" height="64" viewBox="0 0 64 64" fill="none" xmlns="http://www.w3.org/2000/svg">
<path d="M54 0H10C4.47715 0 0 4.47715 0 10V54C0 59.5228 4.47715 64 10 64H54C59.5228 64 64 59.5228 64 54V10C64 4.47715 59.5228 0 54 0Z" fill="#F4FBFF"/>
<path d="M26 8H13C10.2386 8 8 10.2386 8 13V51C8 53.7614 10.2386 56 13 56H26C28.7614 56 31 53.7614 31 51V13C31 10.2386 28.7614 8 26 8Z" fill="#5B48D9"/>
<path d="M51 8H37.5C34.7386 8 32.5 10.2386 32.5 13V51C32.5 53.7614 34.7386 56 37.5 56H51C53.7614 56 56 53.7614 56 51V13C56 10.2386 53.7614 8 51 8Z" fill="#7A5FD9"/>
<rect x="0.25" y="0.25" width="63.5" height="63.5" rx="9.75" stroke="#5B48D9" stroke-opacity="0.22" stroke-width="0.5"/>
</svg>
