<svg width="64" height="64" viewBox="0 0 64 64" fill="none" xmlns="http://www.w3.org/2000/svg">
<path d="M54 0H10C4.47715 0 0 4.47715 0 10V54C0 59.5228 4.47715 64 10 64H54C59.5228 64 64 59.5228 64 54V10C64 4.47715 59.5228 0 54 0Z" fill="#F4FBFF"/>
<path d="M34.5 8H10.5C9.11929 8 8 9.11929 8 10.5V53.5C8 54.8807 9.11929 56 10.5 56H34.5C35.8807 56 37 54.8807 37 53.5V10.5C37 9.11929 35.8807 8 34.5 8Z" fill="#5B48D9"/>
<path d="M53.5 8H42.5C41.1193 8 40 9.11929 40 10.5V53.5C40 54.8807 41.1193 56 42.5 56H53.5C54.8807 56 56 54.8807 56 53.5V10.5C56 9.11929 54.8807 8 53.5 8Z" fill="#7A5FD9"/>
<rect x="0.25" y="0.25" width="63.5" height="63.5" rx="9.75" stroke="#5B48D9" stroke-opacity="0.22" stroke-width="0.5"/>
</svg>
