<svg width="64" height="64" viewBox="0 0 64 64" fill="none" xmlns="http://www.w3.org/2000/svg">
<path d="M64 0H0V64H64V0Z" fill="#F4FBFF"/>
<path d="M14.5 8H9.5C8.67157 8 8 8.67157 8 9.5V54.5C8 55.3284 8.67157 56 9.5 56H14.5C15.3284 56 16 55.3284 16 54.5V9.5C16 8.67157 15.3284 8 14.5 8Z" fill="#7A5FD9"/>
<path d="M34.5 8H29.5C28.6716 8 28 8.67157 28 9.5V54.5C28 55.3284 28.6716 56 29.5 56H34.5C35.3284 56 36 55.3284 36 54.5V9.5C36 8.67157 35.3284 8 34.5 8Z" fill="#5B48D9"/>
<path d="M54.5 8H49.5C48.6716 8 48 8.67157 48 9.5V54.5C48 55.3284 48.6716 56 49.5 56H54.5C55.3284 56 56 55.3284 56 54.5V9.5C56 8.67157 55.3284 8 54.5 8Z" fill="#7A5FD9"/>
<rect x="0.25" y="0.25" width="63.5" height="63.5" rx="9.75" stroke="#5B48D9" stroke-opacity="0.22" stroke-width="0.5"/>
</svg>
