<svg width="64" height="64" viewBox="0 0 64 64" fill="none" xmlns="http://www.w3.org/2000/svg">
<path d="M54 0H10C4.47715 0 0 4.47715 0 10V54C0 59.5228 4.47715 64 10 64H54C59.5228 64 64 59.5228 64 54V10C64 4.47715 59.5228 0 54 0Z" fill="#F4FBFF"/>
<path d="M51 0H13C10.2386 0 8 2.23858 8 5V19C8 21.7614 10.2386 24 13 24H51C53.7614 24 56 21.7614 56 19V5C56 2.23858 53.7614 0 51 0Z" fill="#5B48D9"/>
<path d="M51 40H13C10.2386 40 8 42.2386 8 45V59C8 61.7614 10.2386 64 13 64H51C53.7614 64 56 61.7614 56 59V45C56 42.2386 53.7614 40 51 40Z" fill="#7A5FD9"/>
<path d="M0 31.75H64" stroke="#5B48D9"/>
<path d="M27.735 28.576C27.5009 28.7224 27.4296 29.0309 27.576 29.265C27.7223 29.4992 28.0308 29.5704 28.265 29.424L27.735 28.576ZM35.735 29.424C35.9692 29.5704 36.2777 29.4992 36.424 29.265C36.5704 29.0309 36.4992 28.7224 36.265 28.576L35.735 29.424ZM32.53 26.8313L32.265 27.2553L32.53 26.8313ZM28.265 29.424L31.735 27.2553L31.205 26.4073L27.735 28.576L28.265 29.424ZM32.265 27.2553L35.735 29.424L36.265 28.576L32.795 26.4073L32.265 27.2553ZM31.735 27.2553C31.8972 27.1539 32.1029 27.1539 32.265 27.2553L32.795 26.4073C32.3086 26.1033 31.6914 26.1033 31.205 26.4073L31.735 27.2553Z" fill="#7A5FD9"/>
<path d="M36.265 34.924C36.4992 34.7776 36.5704 34.4692 36.424 34.235C36.2777 34.0009 35.9692 33.9296 35.735 34.076L36.265 34.924ZM28.265 34.076C28.0308 33.9296 27.7223 34.0009 27.576 34.235C27.4296 34.4692 27.5009 34.7776 27.735 34.924L28.265 34.076ZM31.47 36.6688L31.735 36.2448L31.47 36.6688ZM35.735 34.076L32.265 36.2448L32.795 37.0928L36.265 34.924L35.735 34.076ZM31.735 36.2448L28.265 34.076L27.735 34.924L31.205 37.0928L31.735 36.2448ZM32.265 36.2448C32.1029 36.3461 31.8972 36.3461 31.735 36.2448L31.205 37.0928C31.6914 37.3968 32.3086 37.3968 32.795 37.0928L32.265 36.2448Z" fill="#7A5FD9"/>
<rect x="0.25" y="0.25" width="63.5" height="63.5" rx="9.75" stroke="#5B48D9" stroke-opacity="0.22" stroke-width="0.5"/>
</svg>
