<svg width="64" height="64" viewBox="0 0 64 64" fill="none" xmlns="http://www.w3.org/2000/svg">
<rect width="64" height="64" fill="#7A5FD9"/>
<path d="M29.3333 33.3333C29.9059 34.0988 30.6365 34.7322 31.4754 35.1906C32.3143 35.6489 33.242 35.9215 34.1955 35.9898C35.149 36.0581 36.1061 35.9205 37.0018 35.5864C37.8975 35.2523 38.7108 34.7294 39.3866 34.0533L43.3867 30.0533C44.601 28.796 45.273 27.112 45.2578 25.364C45.2426 23.616 44.5415 21.9439 43.3054 20.7079C42.0694 19.4718 40.3973 18.7707 38.6493 18.7555C36.9013 18.7403 35.2173 19.4123 33.96 20.6267L31.6666 22.9067" stroke="white" stroke-width="3" stroke-linecap="round" stroke-linejoin="round"/>
<path d="M34.6667 30.6666C34.0941 29.9011 33.3635 29.2677 32.5246 28.8094C31.6857 28.351 30.758 28.0785 29.8045 28.0102C28.851 27.9419 27.8939 28.0795 26.9982 28.4136C26.1025 28.7477 25.2892 29.2705 24.6134 29.9466L20.6134 33.9466C19.399 35.204 18.727 36.888 18.7422 38.636C18.7574 40.384 19.4585 42.056 20.6946 43.2921C21.9306 44.5282 23.6027 45.2293 25.3507 45.2445C27.0987 45.2597 28.7827 44.5877 30.04 43.3733L32.32 41.0933" stroke="white" stroke-width="3" stroke-linecap="round" stroke-linejoin="round"/>
<rect x="0.25" y="0.25" width="63.5" height="63.5" rx="9.75" stroke="#5B48D9" stroke-opacity="0.25" stroke-width="0.5"/>
</svg>
