<svg width="64" height="64" viewBox="0 0 64 64" fill="none" xmlns="http://www.w3.org/2000/svg">
<path d="M54 0H10C4.47715 0 0 4.47715 0 10V54C0 59.5228 4.47715 64 10 64H54C59.5228 64 64 59.5228 64 54V10C64 4.47715 59.5228 0 54 0Z" fill="#F4FBFF"/>
<path d="M51.0855 16.2004H54.4985C55.327 16.2004 55.9985 16.872 55.9985 17.7004V22.5C55.9985 23.3285 55.327 24 54.4985 24H47C46.1715 24 45.5 23.3287 45.5 22.5002V13.1943C45.5 8.36637 51.8195 7.94887 54.653 8.00427C55.4205 8.01932 55.9985 8.65863 55.9985 9.42628V9.58187C55.9985 10.4103 55.3235 11.072 54.4965 11.1198C50.7745 11.3348 50.5945 12.5079 50.586 15.6985C50.585 15.9746 50.809 16.2004 51.0855 16.2004Z" fill="#5B48D9"/>
<path d="M12.9134 47.7996H9.5C8.67155 47.7996 8 47.128 8 46.2996V41.5C8 40.6715 8.67155 40 9.5 40H16.9988C17.8272 40 18.4988 40.6714 18.4988 41.4998V50.8055C18.4988 55.6335 12.1791 56.051 9.34595 55.9955C8.5784 55.9805 8 55.3415 8 54.5735V54.418C8 53.5895 8.67515 52.928 9.50215 52.8805C13.2243 52.665 13.4042 51.492 13.4129 48.3016C13.4137 48.0254 13.1895 47.7996 12.9134 47.7996Z" fill="#5B48D9"/>
<path d="M37.5853 16.2004H40.9987C41.8271 16.2004 42.4987 16.872 42.4987 17.7004V22.5C42.4987 23.3285 41.8271 24 40.9987 24H33.5C32.6715 24 32 23.3287 32 22.5002V13.1943C32 8.36637 38.3197 7.94887 41.1527 8.00427C41.9203 8.01932 42.4987 8.65863 42.4987 9.42628V9.58187C42.4987 10.4103 41.8236 11.072 40.9966 11.1198C37.2744 11.3348 37.0945 12.5079 37.0858 15.6985C37.085 15.9746 37.3092 16.2004 37.5853 16.2004Z" fill="#5B48D9"/>
<path d="M26.4134 47.7996H23C22.1715 47.7996 21.5 47.128 21.5 46.2996V41.5C21.5 40.6715 22.1715 40 23 40H30.4988C31.3272 40 31.9988 40.6714 31.9988 41.4998V50.8055C31.9988 55.6335 25.679 56.051 22.8459 55.9955C22.0784 55.9805 21.5 55.3415 21.5 54.5735V54.418C21.5 53.5895 22.1751 52.928 23.0021 52.8805C26.7243 52.665 26.9043 51.492 26.913 48.3016C26.9137 48.0254 26.6896 47.7996 26.4134 47.7996Z" fill="#5B48D9"/>
<path d="M8.5 31.5H55.5" stroke="#7A5FD9" stroke-width="2" stroke-linecap="round"/>
<rect x="0.25" y="0.25" width="63.5" height="63.5" rx="9.75" stroke="#5B48D9" stroke-opacity="0.22" stroke-width="0.5"/>
</svg>
