<svg width="64" height="64" viewBox="0 0 64 64" fill="none" xmlns="http://www.w3.org/2000/svg">
<path d="M54 0H10C4.47715 0 0 4.47715 0 10V54C0 59.5228 4.47715 64 10 64H54C59.5228 64 64 59.5228 64 54V10C64 4.47715 59.5228 0 54 0Z" fill="#F4FBFF"/>
<path d="M26.2875 39.2125H56.2125" stroke="#5B48D9" stroke-width="3.15" stroke-linecap="round"/>
<path d="M25.8937 43.6063H51.4875" stroke="#7A5FD9" stroke-width="1.575" stroke-linecap="round"/>
<path d="M25.8937 47.6063H56.6065" stroke="#5B48D9" stroke-width="1.575" stroke-linecap="round"/>
<path d="M25.8937 51.6065H51.4875" stroke="#7A5FD9" stroke-width="1.575" stroke-linecap="round"/>
<path d="M25.8937 55.6065H56.6065" stroke="#5B48D9" stroke-width="1.575" stroke-linecap="round"/>
<path d="M8.5 9H22.5" stroke="#5B48D9" stroke-width="2" stroke-linecap="round"/>
<path d="M8.5 11H20.0625" stroke="#5B48D9" stroke-width="2" stroke-linecap="round"/>
<path d="M8.5 13H22.5" stroke="#5B48D9" stroke-width="2" stroke-linecap="round"/>
<path d="M8.5 15H20.0625" stroke="#5B48D9" stroke-width="2" stroke-linecap="round"/>
<path d="M8.5 17H22.5" stroke="#5B48D9" stroke-width="2" stroke-linecap="round"/>
<path d="M52 8H29C26.2386 8 24 10.2386 24 13V27C24 29.7614 26.2386 32 29 32H52C54.7614 32 57 29.7614 57 27V13C57 10.2386 54.7614 8 52 8Z" fill="white"/>
<path d="M32.2704 19.3227L24.8142 24.6193C24.3034 24.9821 24 25.5698 24 26.1964C24 29.4016 26.5984 32 29.8036 32H53.9815C55.6485 32 57 30.6486 57 28.9815C57 28.6444 56.831 28.3298 56.5505 28.1433L51.2625 24.632C50.6265 24.2096 49.8054 24.1863 49.1463 24.5718L46.3293 26.2198C45.6506 26.6168 44.8022 26.5793 44.1612 26.124L34.5868 19.3227C33.8932 18.8301 32.9639 18.8301 32.2704 19.3227Z" fill="#5B48D9"/>
<path d="M44.75 22C45.7165 22 46.5 21.2165 46.5 20.25C46.5 19.2835 45.7165 18.5 44.75 18.5C43.7835 18.5 43 19.2835 43 20.25C43 21.2165 43.7835 22 44.75 22Z" fill="#7A5FD9"/>
<path d="M9.75 23C9.75 22.5858 9.41421 22.25 9 22.25C8.58579 22.25 8.25 22.5858 8.25 23C8.25 23.4142 8.58579 23.75 9 23.75C9.41421 23.75 9.75 23.4142 9.75 23Z" stroke="#7A5FD9"/>
<path d="M12.25 23C12.25 22.5858 11.9142 22.25 11.5 22.25C11.0858 22.25 10.75 22.5858 10.75 23C10.75 23.4142 11.0858 23.75 11.5 23.75C11.9142 23.75 12.25 23.4142 12.25 23Z" stroke="#7A5FD9"/>
<path d="M14.75 23C14.75 22.5858 14.4142 22.25 14 22.25C13.5858 22.25 13.25 22.5858 13.25 23C13.25 23.4142 13.5858 23.75 14 23.75C14.4142 23.75 14.75 23.4142 14.75 23Z" stroke="#7A5FD9"/>
<path d="M17.25 23C17.25 22.5858 16.9142 22.25 16.5 22.25C16.0858 22.25 15.75 22.5858 15.75 23C15.75 23.4142 16.0858 23.75 16.5 23.75C16.9142 23.75 17.25 23.4142 17.25 23Z" stroke="#7A5FD9"/>
<rect x="0.25" y="0.25" width="63.5" height="63.5" rx="9.75" stroke="#5B48D9" stroke-opacity="0.22" stroke-width="0.5"/>
</svg>
