<svg width="64" height="64" viewBox="0 0 64 64" fill="none" xmlns="http://www.w3.org/2000/svg">
<path d="M54 0H10C4.47715 0 0 4.47715 0 10V54C0 59.5228 4.47715 64 10 64H54C59.5228 64 64 59.5228 64 54V10C64 4.47715 59.5228 0 54 0Z" fill="#F4FBFF"/>
<path d="M13 26.5V37.5C13 38.8807 14.1193 40 15.5 40H44.2538C44.889 40 45.5003 39.7582 45.9637 39.3238L47.119 38.2407C47.6231 37.7681 47.9091 37.108 47.9091 36.4169V27.6479C47.9091 26.9192 47.5912 26.2268 47.0385 25.7519L45.7028 24.604C45.2494 24.2143 44.6713 24 44.0734 24H15.5C14.1193 24 13 25.1193 13 26.5Z" fill="#5B48D9"/>
<path d="M43.75 34.5C44.9926 34.5 46 33.4926 46 32.25C46 31.0074 44.9926 30 43.75 30C42.5074 30 41.5 31.0074 41.5 32.25C41.5 33.4926 42.5074 34.5 43.75 34.5Z" fill="white"/>
<rect x="0.25" y="0.25" width="63.5" height="63.5" rx="9.75" stroke="#5B48D9" stroke-opacity="0.22" stroke-width="0.5"/>
</svg>
