<svg width="64" height="64" viewBox="0 0 64 64" fill="none" xmlns="http://www.w3.org/2000/svg">
<path d="M54 0H10C4.47715 0 0 4.47715 0 10V54C0 59.5228 4.47715 64 10 64H54C59.5228 64 64 59.5228 64 54V10C64 4.47715 59.5228 0 54 0Z" fill="#F4FBFF"/>
<path d="M17.0703 31.2297H10.5C9.1193 31.2297 8 30.1104 8 28.7297V18.5C8 17.1193 9.1193 16 10.5 16H26C27.3807 16 28.5 17.1172 28.5 18.498V37.0994C28.5 46.7551 15.5543 47.3762 10.238 47.2242C8.95905 47.1876 8 46.1226 8 44.8431V43.7242C8 42.3435 9.1252 41.2363 10.5044 41.1725C17.9731 40.8272 18.5261 38.6844 18.5671 32.7318C18.5728 31.9034 17.8987 31.2297 17.0703 31.2297Z" fill="#5B48D9"/>
<path d="M45.0703 31.2297H38C36.6193 31.2297 35.5 30.1104 35.5 28.7297V18.5C35.5 17.1193 36.6193 16 38 16H53.5C54.8805 16 56 17.1172 56 18.498V37.0994C56 46.7551 43.0543 47.3762 37.738 47.2242C36.459 47.1876 35.5 46.1226 35.5 44.8431V43.7242C35.5 42.3435 36.6252 41.2363 38.0045 41.1725C45.6779 40.8177 46.0512 38.5656 46.0694 32.2336C46.071 31.6813 45.6226 31.2297 45.0703 31.2297Z" fill="#5B48D9"/>
<rect x="0.25" y="0.25" width="63.5" height="63.5" rx="9.75" stroke="#5B48D9" stroke-opacity="0.22" stroke-width="0.5"/>
</svg>
