<svg width="64" height="64" viewBox="0 0 64 64" fill="none" xmlns="http://www.w3.org/2000/svg">
<path d="M54 0H10C4.47715 0 0 4.47715 0 10V54C0 59.5228 4.47715 64 10 64H54C59.5228 64 64 59.5228 64 54V10C64 4.47715 59.5228 0 54 0Z" fill="#F4FBFF"/>
<path d="M32.1119 24.1119C36.5611 24.1119 40.1678 20.5051 40.1678 16.056C40.1678 11.6068 36.5611 8 32.1119 8C27.6627 8 24.0559 11.6068 24.0559 16.056C24.0559 20.5051 27.6627 24.1119 32.1119 24.1119Z" fill="#7A5FD9"/>
<path fill-rule="evenodd" clip-rule="evenodd" d="M40.6817 26.7172C38.9072 29.5856 35.7327 31.4965 32.1119 31.4965C28.4261 31.4965 25.2028 29.5163 23.4478 26.5618C18.9727 29.3853 16 34.3735 16 40.056H47.8881C47.8881 34.4763 45.022 29.5661 40.6817 26.7172Z" fill="#5B48D9"/>
<path d="M16.7875 48.7125H46.7125" stroke="#5B48D9" stroke-width="3.15" stroke-linecap="round"/>
<path d="M16.3937 53.1065H41.9875" stroke="#7A5FD9" stroke-width="1.575" stroke-linecap="round"/>
<rect x="0.25" y="0.25" width="63.5" height="63.5" rx="9.75" stroke="#5B48D9" stroke-opacity="0.22" stroke-width="0.5"/>
</svg>
